<svg id="Layer_1" data-name="Layer 1" xmlns="http://www.w3.org/2000/svg" viewBox="0 0 1402.76 385.43"><defs><style>.cls-1,.cls-5{fill:#1b1b1b;}.cls-2{fill:#e60004;}.cls-3{fill:#1c1c1c;}.cls-4{fill:#ffb300;}.cls-5{font-size:132.03px;font-family:BrushScriptMT, Brush Script MT;}</style></defs><path class="cls-1" d="M190.32,443.6l-25.78.19q-27.12.38-39.63,1.15-11.16,1-16,1-11.74,0-18.66-6-6.74-6-6.74-14.24c0-3.58.84-6.41,2.5-8.46s5.71-5.26,12.12-9.62q5.58-3.84,7.7-12t4.62-35.11q3.65-41.92,3.65-103.3,0-22.5-3-29.91t-14-12.22q-12.69-5.38-12.69-15.77,0-8.46,7.59-13.85t19.53-5.39q6.54,0,16.74.58,16.92.76,36.55.77,14.41,0,56.74-1.16,13.28-.37,24.05-.38,25.57,0,41.26,4.14a68.16,68.16,0,0,1,27.22,13.94q18.85,16,18.85,42.71a63.41,63.41,0,0,1-5.57,25.87,52.15,52.15,0,0,1-15,20.1c-4.49,3.59-6.73,6.87-6.73,9.81q0,4.81,8.08,8.08,15.76,6.36,28.66,21.36,13.27,15.57,13.27,39.05,0,27.69-20.2,50.59-26.73,30.19-79.06,30.2-7.11,0-35-1Q196.09,443.79,190.32,443.6Zm13.27-208.72V274.5q0,9.44,2.41,13.28t8.36,3.84q14.23,0,21-8.75t6.73-27.41q0-18.08-6.92-28t-19.62-9.91q-6.74,0-9.33,3.75T203.59,234.88Zm0,110.8V364q0,25.21,3.66,33.48t14.81,8.27q29.24,0,29.24-34.24,0-42.7-32.71-42.71-8.46,0-11.73,3.66T203.59,345.68Z" transform="translate(-55.45 -63.55)"/><path class="cls-1" d="M390.49,384.05a32,32,0,0,1,22.7,9.08q9.76,9.22,9.77,23.8a30.56,30.56,0,0,1-9.77,23,32.9,32.9,0,0,1-45.39,0A31,31,0,0,1,358,416.52q0-14.31,9.77-23.39A32.76,32.76,0,0,1,390.49,384.05Z" transform="translate(-55.45 -63.55)"/><path class="cls-1" d="M809.38,384.05a32,32,0,0,1,22.7,9.08q9.76,9.22,9.77,23.8a30.56,30.56,0,0,1-9.77,23,32.92,32.92,0,0,1-45.4,0,31,31,0,0,1-9.76-23.38q0-14.31,9.76-23.39A32.8,32.8,0,0,1,809.38,384.05Z" transform="translate(-55.45 -63.55)"/><path class="cls-1" d="M1171.6,381.89a32,32,0,0,1,22.69,9.08q9.76,9.21,9.77,23.8a30.57,30.57,0,0,1-9.77,23,32.9,32.9,0,0,1-45.39,0,31.06,31.06,0,0,1-9.77-23.39q0-14.3,9.77-23.38A32.79,32.79,0,0,1,1171.6,381.89Z" transform="translate(-55.45 -63.55)"/><path class="cls-1" d="M694.64,310.86,731,388.77q5.21,10.77,8.66,14.14t10.58,4.52q13.86,2.11,13.85,14,0,14.05-16.93,20.2t-55.4,6.16q-43.47,0-64.44-3.66-9.63-1.73-15.29-7a16.84,16.84,0,0,1-5.68-12.79q0-5.78,3-8.95t11.06-5.86q9-3.07,9-10.39,0-12.89-15.58-15.2-16.73-2.31-47.13-2.31-25.58,0-30.58,3.08-3.09,1.92-5.39,6.93a22.89,22.89,0,0,0-2.31,9.61c0,2.83.55,4.65,1.64,5.49s4.64,2.21,10.67,4.13q11.73,3.47,11.74,13.85,0,22.9-54.83,22.89-31.15,0-45.78-4.23-13.47-4-13.47-17.7,0-6,3-9.23t10.67-6q12.51-4.42,18.95-12.41T489.38,364l27.13-59.44q15-32.7,20.1-48.95a111,111,0,0,0,5.29-31.84q.18-16.54,2-23t8.17-12.6q13.27-13.45,33.86-13.46,19.42,0,37.13,15.19Q647.69,210.64,694.64,310.86ZM560.75,335.1h37.7q10.39,0,10.39-4.62,0-6.35-14.43-31.16-6.54-11.35-10-15.2t-7.31-3.84q-6.93,0-11.54,12.88-.78,1.74-5.58,13.66-8.09,19.62-8.08,23.47Q551.9,335.11,560.75,335.1Z" transform="translate(-55.45 -63.55)"/><path class="cls-1" d="M935.26,443.79H921.41q-12.12,0-27.13,1.15-9.42.76-13.08.77-12.88,0-21-6t-8.08-15.58q0-6.74,3.56-10.49t11.64-6.06q7.7-1.92,10.39-6.25T882,384.54q1.54-14.43,2.79-56.17T886,245.46q0-16.17-2.5-21.55t-11.73-8.66q-13.28-5-13.28-17.12,0-9.42,9.14-14.71t25.49-5.29q5.39,0,12.7.19,16.15.59,23.46.58,27.51,0,62.14-1.73,7.3-.39,18.27-.39,44.05,0,69.64,10,38.09,15,57.33,50.41,17.11,31.15,17.12,74.25a155.47,155.47,0,0,1-6.35,43.57q-6.35,21.84-17.12,37.8-22.32,32.31-61.56,45.4a154.77,154.77,0,0,1-49.25,7.69l-23.27-.77-20-.57Q953,443.78,935.26,443.79Zm40.39-208.53V384.15q0,12.12,5.2,17.22t17.31,5.1q56.17,0,56.17-85.41,0-47.13-13.08-73.1-14.43-28.67-48.86-28.66-9.24,0-13,3.65T975.65,235.26Z" transform="translate(-55.45 -63.55)"/><path class="cls-1" d="M84.43,429.73c-8.66,0-15.73-2.3-21-6.83-5.31-4.7-8-10.39-8-17,0-4.42,1.11-8,3.3-10.73,1.94-2.38,6-5.66,12.89-10.32,3-2.07,5-5.33,6.24-10,1.35-5.24,2.87-16.86,4.52-34.53C84.81,312.66,86,278,86,237.43c0-18-1.48-25.49-2.73-28.58-1.61-4-5.67-7.46-12-10.26-12.27-5.2-14.85-13.24-14.85-19.07,0-6.85,3.07-12.49,9.11-16.78,5.67-4,12.93-6.05,21.61-6.05,4.41,0,10.11.2,16.94.59,11.1.5,23.34.76,36.34.76,9.54,0,28.6-.39,56.65-1.15,8.9-.26,17-.39,24.15-.39,17.28,0,31.47,1.43,42.18,4.26A72.09,72.09,0,0,1,292,175.44c13.35,11.31,20.12,26.6,20.12,45.44a67.1,67.1,0,0,1-5.89,27.33,55.78,55.78,0,0,1-16.05,21.46c-4.86,3.88-5.38,6.19-5.38,7,0,1.52,2.13,3.25,5.83,4.75,11,4.42,21.11,11.94,30,22.34,9.39,11,14.14,24.94,14.14,41.39,0,19.29-7.09,37.11-21.09,53-18.46,20.85-46,31.42-81.76,31.42-4.81,0-16.3-.32-35.13-1q-25.24-1-31.09-1.16l-25.7.2c-17.92.25-31.2.63-39.44,1.14C93.08,429.41,87.76,429.73,84.43,429.73ZM194.08,312.58c-4.48,0-7.61.85-9.05,2.46-.88,1-2.36,3.7-2.36,10.88v18.27c0,20.21,1.82,28.56,3.35,32,1.16,2.63,3.62,6.13,11.53,6.13,17.49,0,25.64-9.74,25.64-30.65C223.19,325.37,213.67,312.58,194.08,312.58ZM191,201.39c-3.22,0-5.37.74-6.38,2.2-.73,1.06-2,4-2,11.52v39.63c0,7.31,1.17,10.26,1.86,11.36.58.94,1.76,2.17,5.32,2.17,8.39,0,14.32-2.41,18.12-7.35,4-5.17,6-13.66,6-25.22,0-11.25-2.11-20-6.28-25.94C203.74,204.13,198.29,201.39,191,201.39Z" transform="translate(-55.45 -63.55)"/><path class="cls-2" d="M165.81,423.83,140,424q-27.12.39-39.63,1.16-11.16,1-16,1-11.73,0-18.66-6-6.73-6-6.73-14.24,0-5.38,2.5-8.46t12.12-9.62q5.58-3.86,7.7-12T86,340.73q3.66-41.94,3.66-103.3,0-22.52-3-29.92t-14-12.21Q60,189.92,60,179.52q0-8.46,7.6-13.85t19.53-5.38q6.54,0,16.73.57,16.94.78,36.55.77,14.43,0,56.75-1.15,13.28-.39,24.05-.39,25.57,0,41.26,4.14a68.3,68.3,0,0,1,27.22,14q18.85,16,18.85,42.7A63.31,63.31,0,0,1,303,246.76a52,52,0,0,1-15,20.1q-6.73,5.38-6.73,9.81,0,4.81,8.08,8.08Q305.08,291.1,318,306.1q13.27,15.58,13.27,39,0,27.71-20.2,50.59Q284.31,426,232,426q-7.12,0-35-1Q171.58,424,165.81,423.83Zm13.27-208.72v39.63q0,9.42,2.4,13.27t8.37,3.85q14.24,0,21-8.75t6.73-27.41q0-18.09-6.92-28T191,197.8q-6.73,0-9.33,3.75T179.08,215.11Zm0,110.81v18.27q0,25.2,3.65,33.47t14.82,8.27q29.23,0,29.24-34.24,0-42.7-32.71-42.7-8.46,0-11.73,3.65T179.08,325.92Z" transform="translate(-55.45 -63.55)"/><path class="cls-3" d="M366,432.81a35.59,35.59,0,0,1-25.16-10.06,34.63,34.63,0,0,1-10.9-26c0-10.53,3.68-19.29,10.92-26a36.42,36.42,0,0,1,25.1-10.05,35.64,35.64,0,0,1,25.2,10.06c7.23,6.83,10.9,15.71,10.9,26.41a34.18,34.18,0,0,1-10.87,25.57A35.63,35.63,0,0,1,366,432.81Z" transform="translate(-55.45 -63.55)"/><path class="cls-2" d="M366,364.29a32,32,0,0,1,22.7,9.08q9.76,9.21,9.77,23.79a30.6,30.6,0,0,1-9.77,23,32.92,32.92,0,0,1-45.4,0,31,31,0,0,1-9.76-23.39q0-14.29,9.76-23.38A32.8,32.8,0,0,1,366,364.29Z" transform="translate(-55.45 -63.55)"/><path class="cls-1" d="M784.87,432.81a35.59,35.59,0,0,1-25.16-10.06,34.65,34.65,0,0,1-10.9-26c0-10.53,3.67-19.29,10.92-26a36.42,36.42,0,0,1,25.1-10.05A35.64,35.64,0,0,1,810,370.75c7.23,6.83,10.9,15.71,10.9,26.41a34.15,34.15,0,0,1-10.88,25.57A35.6,35.6,0,0,1,784.87,432.81Z" transform="translate(-55.45 -63.55)"/><path class="cls-2" d="M784.87,364.88a32,32,0,0,1,22.7,9.08q9.76,9.23,9.76,23.8a30.55,30.55,0,0,1-9.76,23,32.91,32.91,0,0,1-45.4,0,31,31,0,0,1-9.76-23.38q0-14.31,9.76-23.39A32.8,32.8,0,0,1,784.87,364.88Z" transform="translate(-55.45 -63.55)"/><path class="cls-1" d="M1147.08,432.81a35.59,35.59,0,0,1-25.16-10.06,34.68,34.68,0,0,1-10.89-26c0-10.53,3.67-19.29,10.91-26a36.45,36.45,0,0,1,25.11-10.05,35.68,35.68,0,0,1,25.2,10.06c7.23,6.83,10.89,15.71,10.89,26.41a34.18,34.18,0,0,1-10.87,25.57A35.63,35.63,0,0,1,1147.08,432.81Z" transform="translate(-55.45 -63.55)"/><path class="cls-2" d="M1147.09,364.88a32,32,0,0,1,22.69,9.08q9.77,9.23,9.77,23.8a30.56,30.56,0,0,1-9.77,23,32.9,32.9,0,0,1-45.39,0,31,31,0,0,1-9.77-23.38q0-14.31,9.77-23.39A32.79,32.79,0,0,1,1147.09,364.88Z" transform="translate(-55.45 -63.55)"/><path class="cls-1" d="M667.24,431.66c-29,0-50.93-1.25-65.06-3.71-7.1-1.28-12.85-3.95-17.13-7.94a20.38,20.38,0,0,1-6.81-15.42c0-4.77,1.33-8.61,4-11.4,2.42-2.58,6.52-4.81,12.54-6.82,5.84-2,6.59-4.77,6.59-7,0-4.55-1.42-10-12.51-11.64-10.91-1.5-26.61-2.27-46.61-2.27-22.17,0-27.46,1.78-28.7,2.55-1.42.88-2.78,2.7-4,5.37a19.51,19.51,0,0,0-2,8.11,7.19,7.19,0,0,0,.35,2.7c.5.29,2.47,1.27,9.46,3.49,11.76,3.47,14.24,11.31,14.24,17.28,0,9.18-5.36,16.07-15.92,20.48-9.67,4-23.57,6-42.5,6-21.31,0-36.61-1.43-46.78-4.37-10.52-3.16-16.06-10.46-16.06-21.15,0-4.88,1.32-8.8,3.92-11.66,2.41-2.64,6.39-4.91,12.14-6.93,7.65-2.7,13.49-6.5,17.34-11.27,4.08-5.06,10.11-16.29,17.9-33.38l27.12-59.44c9.9-21.57,16.61-37.9,19.95-48.54a107.81,107.81,0,0,0,5.12-30.81c.13-11.45.84-19.27,2.16-23.92,1.38-4.89,4.46-9.67,9.13-14.2,9.45-9.59,21.7-14.48,36.36-14.48,13.77,0,27,5.4,39.46,16.06,17,14.3,40.67,54.28,72.48,122.2l36.36,77.92c4,8.39,6.53,11.75,7.9,13.08,1.76,1.71,4.67,2.9,8.65,3.55,13.94,2.13,16.87,10.74,16.87,17.59,0,11-6.49,18.92-19.29,23.57C712.07,429.57,693.55,431.66,667.24,431.66ZM552.59,264.1c-3.82,0-6.75,6.59-8.16,10.51l0,.13,0,.12c-.35.78-1.59,3.76-5.53,13.54C531.54,306,531,309.79,531,310.53a.65.65,0,0,0,0,.23s.86,1,5.23,1h37.7c5,0,6.47-.85,6.79-1.1-.05-1.79-1.6-8.07-13.93-29.28-4.23-7.32-7.45-12.23-9.57-14.6C555.62,265,554.1,264.1,552.59,264.1Z" transform="translate(-55.45 -63.55)"/><path class="cls-2" d="M670.12,291.69l36.36,77.91q5.21,10.77,8.66,14.14t10.58,4.52q13.85,2.12,13.85,14,0,14.06-16.93,20.2t-55.4,6.16q-43.47,0-64.44-3.66-9.63-1.72-15.3-7a16.86,16.86,0,0,1-5.67-12.79q0-5.78,3-8.95t11.06-5.86q9-3.08,9-10.39,0-12.89-15.58-15.2-16.74-2.31-47.13-2.31-25.59,0-30.59,3.08-3.08,1.92-5.38,6.93a22.89,22.89,0,0,0-2.31,9.61c0,2.83.54,4.65,1.64,5.49s4.64,2.21,10.67,4.13Q528,395.18,528,405.57q0,22.9-54.83,22.89-31.15,0-45.78-4.23-13.47-4-13.47-17.7,0-6,3-9.23t10.68-6q12.51-4.43,18.95-12.41t18.37-34.15L492,285.34q15-32.7,20.11-48.95a111,111,0,0,0,5.29-31.84q.18-16.55,2-23t8.17-12.6q13.27-13.46,33.86-13.46,19.42,0,37.12,15.19Q623.19,191.46,670.12,291.69ZM536.24,315.93h37.7q10.39,0,10.39-4.62,0-6.35-14.43-31.16-6.54-11.36-10-15.2t-7.31-3.84q-6.93,0-11.54,12.88-.78,1.74-5.58,13.66-8.09,19.62-8.08,23.47Q527.39,315.93,536.24,315.93Z" transform="translate(-55.45 -63.55)"/><path class="cls-1" d="M971.61,429l-20-.58c-15.38-.51-29.12-.76-40.87-.76H896.9c-8,0-17,.38-26.85,1.14-6.45.52-10.83.78-13.36.78-9.34,0-17.11-2.24-23.1-6.67-6.33-4.67-9.54-10.88-9.54-18.47,0-5.42,1.53-9.78,4.55-13,2.84-3,7.18-5.3,13.25-7l.12,0c4.17-1,6.93-2.61,8.21-4.66,1-1.67,2.52-5.69,3.71-15.38,1-9.41,1.94-28.22,2.77-55.84s1.25-55.54,1.25-82.8c0-12.69-1.18-17.9-2.17-20-1.24-2.66-4.49-4.95-9.68-6.78C833.1,194,830.4,185,830.4,178.37c0-7.52,3.78-13.68,10.93-17.83,6.62-3.83,15.8-5.77,27.29-5.77,3.56,0,7.74.06,12.79.19,10.7.39,18.55.58,23.37.58,18.2,0,39.05-.58,62-1.73,4.93-.26,11.14-.39,18.45-.39,29.68,0,53.55,3.45,71,10.25,26.08,10.28,46,27.78,59.17,52,11.65,21.21,17.56,46.77,17.56,76a160,160,0,0,1-6.49,44.58c-4.32,14.84-10.24,27.9-17.59,38.81-15.29,22.13-36.61,37.86-63.41,46.79A158.94,158.94,0,0,1,995,429.73Zm-3.73-225.84c-5.08,0-8.71.92-10.48,2.64s-2.66,5.07-2.66,9.74V364.39c0,7,1.38,12,4.11,14.65s7.73,4.07,14.8,4.07c35.38,0,52.58-26.76,52.58-81.82,0-30.7-4.27-54.75-12.7-71.48C1004.49,211.85,989.56,203.12,967.88,203.12Z" transform="translate(-55.45 -63.55)"/><path class="cls-2" d="M910.75,424.62H896.9q-12.12,0-27.13,1.15c-6.28.51-10.65.77-13.08.77q-12.88,0-21-6T827.64,405q0-6.74,3.56-10.49t11.64-6.06q7.7-1.92,10.39-6.25t4.23-16.83q1.54-14.43,2.79-56.17t1.25-82.91q0-16.17-2.5-21.55t-11.73-8.66Q834,191.08,834,179q0-9.42,9.14-14.71T868.62,159q5.39,0,12.69.19,16.17.58,23.47.58,27.51,0,62.14-1.73,7.3-.39,18.27-.39,44.05,0,69.64,10,38.09,15,57.32,50.4,17.13,31.17,17.12,74.26a155.45,155.45,0,0,1-6.34,43.57q-6.36,21.84-17.12,37.8Q1083.49,406,1044.25,419A154.77,154.77,0,0,1,995,426.73L971.73,426l-20-.57Q928.44,424.61,910.75,424.62Zm40.39-208.53V365q0,12.12,5.2,17.22t17.31,5.1q56.16,0,56.17-85.41,0-47.13-13.08-73.1-14.43-28.66-48.86-28.67-9.24,0-13,3.66T951.14,216.09Z" transform="translate(-55.45 -63.55)"/><path class="cls-1" d="M1397.77,252c-33.68,24.8-78.88,44.49-127.25,55.44-55.59,12.57-110.63,12.94-155,1-46.81-12.57-76.64-37.45-84-70.05-8.2-36.23,13.2-76.23,58.72-109.75,33.69-24.8,78.88-44.49,127.26-55.43,55.59-12.58,110.62-13,155-1,46.81,12.58,76.65,37.45,84,70.06,8.2,36.23-13.21,76.23-58.72,109.74Z" transform="translate(-55.45 -63.55)"/><ellipse class="cls-4" cx="1244.02" cy="190.36" rx="206.73" ry="108.94" transform="translate(-66.78 215.71) rotate(-12.75)"/><text class="cls-5" transform="matrix(0.98, -0.22, 0.22, 0.98, 1027.68, 199.42)">Advice!</text></svg>