<?xml version="1.0" encoding="utf-8"?>
<!-- Generator: Adobe Illustrator 25.0.0, SVG Export Plug-In . SVG Version: 6.00 Build 0)  -->
<svg version="1.1" id="Layer_1" xmlns="http://www.w3.org/2000/svg" xmlns:xlink="http://www.w3.org/1999/xlink" x="0px" y="0px"
	 viewBox="0 0 1548 365.1" style="enable-background:new 0 0 1548 365.1;" xml:space="preserve">
<style type="text/css">
	.st0{fill:none;}
	.st1{fill:#1B1B1B;}
	.st2{fill:#005C9C;}
	.st3{fill:#1C1C1C;}
	.st4{fill:#FF470F;}
	.st5{fill:#008200;}
	.st6{fill:#E60003;}
	.st7{fill:#FFB300;}
	.st8{fill:#FF95C1;}
</style>
<g id="Frame">
	<rect x="-236.3" y="-817.4" class="st0" width="2004.8" height="2004.8"/>
</g>
<g id="Yellow">
	<path class="st1" d="M166.5,328.4l-25.8,0.2c-18.1,0.3-31.3,0.6-39.6,1.2c-7.4,0.6-12.8,1-16,1c-7.8,0-14-2-18.6-6
		c-4.5-4-6.7-8.7-6.7-14.2c0-3.6,0.8-6.4,2.5-8.5s5.7-5.2,12.1-9.6c3.7-2.6,6.3-6.6,7.7-12s2.9-17.1,4.6-35.1
		c2.4-28,3.6-62.4,3.6-103.3c0-15-1-25-3-29.9s-6.6-9-13.9-12.2c-8.5-3.6-12.7-8.9-12.7-15.8c0-5.6,2.5-10.3,7.6-13.8
		c5.1-3.6,11.6-5.4,19.5-5.4c4.4,0,9.9,0.2,16.7,0.6c11.3,0.5,23.5,0.8,36.5,0.8c9.6,0,28.5-0.4,56.7-1.2c8.8-0.3,16.8-0.4,24-0.4
		c17,0,30.8,1.4,41.3,4.1c10,2.5,19.3,7.3,27.2,13.9c12.6,10.7,18.9,24.9,18.8,42.7c0,8.9-1.9,17.7-5.6,25.9
		c-3.3,7.8-8.4,14.7-15,20.1c-4.5,3.6-6.7,6.8-6.7,9.8c0,3.2,2.7,5.9,8.1,8.1c10.5,4.2,20.1,11.3,28.7,21.3
		c8.8,10.4,13.3,23.4,13.3,39c0,18.5-6.7,35.3-20.2,50.6c-17.8,20.1-44.2,30.2-79,30.2c-4.7,0-16.4-0.3-35-1
		C180.8,328.9,170.4,328.5,166.5,328.4z M179.8,119.7v39.6c0,6.3,0.8,10.7,2.4,13.3s4.4,3.8,8.4,3.8c9.5,0,16.5-2.9,21-8.8
		c4.5-5.8,6.8-15,6.7-27.4c0-12.1-2.3-21.4-6.9-28c-4.6-6.6-11.2-9.9-19.7-9.9c-4.5,0-7.6,1.2-9.3,3.8
		C180.7,108.7,179.8,113.2,179.8,119.7z M179.8,230.5v18.3c0,16.8,1.2,28,3.6,33.5c2.4,5.5,7.4,8.3,14.8,8.3
		c19.5,0,29.2-11.4,29.2-34.2c0-28.5-10.9-42.7-32.7-42.7c-5.7,0-9.6,1.2-11.7,3.7C180.9,219.7,179.8,224.1,179.8,230.5z"/>
	<path class="st1" d="M366.7,268.9c8.5-0.1,16.6,3.2,22.7,9.1c6.5,6.1,9.8,14.1,9.8,23.8c0.2,8.7-3.4,17.1-9.8,23
		c-12.7,12.1-32.7,12.1-45.4,0c-6.4-6-10-14.5-9.8-23.4c0-9.5,3.3-17.3,9.8-23.4C350.1,272.1,358.2,268.8,366.7,268.9z"/>
	<path class="st1" d="M785.4,268.9c8.5-0.1,16.6,3.2,22.7,9.1c6.5,6.1,9.8,14.1,9.8,23.8c0.2,8.7-3.4,17.1-9.8,23
		c-12.7,12.1-32.7,12.1-45.4,0c-6.4-6-10-14.5-9.8-23.4c0-9.5,3.3-17.3,9.8-23.4C768.8,272.1,776.9,268.9,785.4,268.9z"/>
	<path class="st1" d="M1147.5,266.7c8.5-0.1,16.6,3.2,22.7,9.1c6.5,6.1,9.8,14.1,9.8,23.8c0.2,8.7-3.4,17.1-9.8,23
		c-12.7,12.1-32.7,12.1-45.4,0c-6.5-6.2-9.8-14-9.8-23.4c0-9.5,3.3-17.3,9.8-23.4C1130.9,270,1139,266.7,1147.5,266.7z"/>
	<path class="st1" d="M670.7,195.7l36.3,77.9c3.5,7.2,6.3,11.9,8.7,14.1s5.8,3.7,10.6,4.5c9.2,1.4,13.8,6.1,13.8,14
		c0,9.3-5.6,16.1-16.9,20.2c-11.3,4.1-29.7,6.2-55.4,6.2c-29,0-50.4-1.2-64.4-3.7c-6.4-1.2-11.5-3.5-15.3-7
		c-3.7-3.2-5.7-7.9-5.7-12.8c0-3.8,1-6.8,3-8.9c2-2.1,5.7-4.1,11.1-5.9c6-2,9-5.5,9-10.4c0-8.6-5.2-13.6-15.6-15.2
		c-11.2-1.5-26.9-2.3-47.1-2.3c-17.1,0-27.2,1-30.6,3.1c-2.1,1.3-3.9,3.6-5.4,6.9c-1.5,3-2.2,6.3-2.3,9.6c0,2.8,0.5,4.6,1.6,5.5
		c1.1,0.8,4.7,2.2,10.7,4.1c7.8,2.3,11.7,6.9,11.7,13.8c0,15.3-18.3,22.9-54.8,22.9c-20.8,0-36-1.4-45.8-4.2
		c-9-2.7-13.5-8.6-13.5-17.7c0-4,1-7.1,3-9.2s5.6-4.2,10.7-6c8.3-3,14.6-7.1,18.9-12.4s10.4-16.7,18.4-34.1l27.1-59.4
		c10-21.8,16.7-38.1,20.1-48.9c3.3-10.3,5.1-21,5.3-31.8c0.1-11,0.8-18.7,2-23c1.2-4.3,3.9-8.5,8.2-12.6C537,64,548.3,59.6,562,59.6
		c12.9,0,25.3,5.1,37.1,15.2C615.6,88.6,639.4,128.9,670.7,195.7z M536.9,219.9h37.7c6.9,0,10.4-1.5,10.4-4.6
		c0-4.2-4.8-14.6-14.4-31.2c-4.4-7.6-7.7-12.6-10-15.2c-2.3-2.6-4.7-3.8-7.3-3.8c-4.6,0-8.5,4.3-11.5,12.9
		c-0.5,1.2-2.4,5.7-5.6,13.7c-5.4,13.1-8.1,20.9-8.1,23.5C528,218.3,531,219.9,536.9,219.9L536.9,219.9z"/>
	<path class="st1" d="M911.2,328.6h-13.8c-8.1,0-17.1,0.4-27.1,1.2c-6.3,0.5-10.6,0.8-13.1,0.8c-8.6,0-15.6-2-21-6
		s-8.1-9.2-8.1-15.6c0-4.5,1.2-8,3.6-10.5s6.3-4.5,11.6-6.1c5.1-1.3,8.6-3.4,10.4-6.2s3.2-8.5,4.2-16.8c1-9.6,2-28.3,2.8-56.2
		c0.8-27.8,1.2-55.4,1.2-82.9c0-10.8-0.8-17.9-2.5-21.5c-1.7-3.6-5.6-6.5-11.7-8.7c-8.8-3.3-13.3-9-13.3-17.1c0-6.3,3-11.2,9.1-14.7
		c6.1-3.5,14.6-5.3,25.5-5.3c3.6,0,7.8,0.1,12.7,0.2c10.8,0.4,18.6,0.6,23.5,0.6c18.3,0,39-0.6,62.1-1.7c4.9-0.2,11-0.4,18.3-0.4
		c29.3,0,52.5,3.3,69.6,10c25.4,10,44.5,26.8,57.3,50.4c11.4,20.8,17.1,45.5,17.1,74.2c0,14.7-2.2,29.4-6.3,43.6
		c-4.2,14.5-9.9,27.1-17.1,37.8c-14.9,21.5-35.4,36.7-61.5,45.4c-15.9,5.2-32.5,7.8-49.2,7.7l-23.3-0.8l-20-0.6
		C936.7,328.8,923,328.6,911.2,328.6z M951.6,120.1V269c0,8.1,1.7,13.8,5.2,17.2c3.5,3.4,9.2,5.1,17.3,5.1
		c37.4,0,56.2-28.5,56.2-85.4c0-31.4-4.4-55.8-13.1-73.1c-9.6-19.1-25.9-28.7-48.8-28.7c-6.2,0-10.5,1.2-13,3.7
		S951.6,114.3,951.6,120.1z"/>
	<path class="st1" d="M60.7,314.6c-8.7,0-15.7-2.3-21-6.8c-5.3-4.7-8-10.4-8-17c0-4.4,1.1-8,3.3-10.7c1.9-2.4,6-5.7,12.9-10.3
		c3-2.1,5-5.3,6.2-9.9c1.4-5.2,2.9-16.9,4.5-34.5c2.4-27.7,3.6-62.4,3.6-102.9c0-18-1.5-25.5-2.7-28.6c-1.6-4-5.7-7.5-12-10.3
		c-12.3-5.2-14.9-13.2-14.9-19.1c0-6.8,3.1-12.5,9.1-16.8c5.7-4,12.9-6,21.6-6c4.4,0,10.1,0.2,16.9,0.6c11.1,0.5,23.3,0.8,36.3,0.8
		c9.5,0,28.6-0.4,56.6-1.2c8.9-0.3,17-0.4,24.1-0.4c17.3,0,31.5,1.4,42.2,4.3c10.5,2.7,20.3,7.7,28.6,14.7
		c13.4,11.3,20.1,26.6,20.1,45.4c0,9.4-2,18.7-5.9,27.3c-3.5,8.4-9,15.7-16,21.5c-4.9,3.9-5.4,6.2-5.4,7c0,1.5,2.1,3.2,5.8,4.8
		c11,4.4,21.1,11.9,30,22.3c9.4,11,14.1,24.9,14.1,41.4c0,19.3-7.1,37.1-21.1,52.9c-18.5,20.8-46,31.4-81.7,31.4
		c-4.8,0-16.3-0.3-35.1-1c-16.8-0.7-27.2-1.1-31.1-1.2l-25.7,0.2c-17.9,0.3-31.2,0.6-39.4,1.2C69.3,314.2,64,314.6,60.7,314.6z
		 M170.3,197.5c-4.5,0-7.6,0.8-9,2.5c-0.9,1-2.4,3.7-2.4,10.9v18.3c0,20.2,1.8,28.6,3.3,32c1.2,2.6,3.6,6.1,11.5,6.1
		c17.5,0,25.6-9.7,25.6-30.6C199.4,210.2,189.9,197.4,170.3,197.5L170.3,197.5z M167.3,86.3c-3.2,0-5.4,0.7-6.4,2.2
		c-0.7,1.1-2,4-2,11.5v39.5c0,7.3,1.2,10.3,1.9,11.4c0.6,0.9,1.8,2.2,5.3,2.2c8.4,0,14.3-2.4,18.1-7.3c4-5.2,6-13.7,6-25.2
		c0-11.2-2.1-20-6.3-25.9C180,89,174.5,86.3,167.3,86.3L167.3,86.3z"/>
	<path class="st2" d="M142,308.6l-25.8,0.2c-18.1,0.3-31.3,0.6-39.6,1.2c-7.4,0.7-12.8,1-16,1c-7.8,0-14-2-18.7-6
		c-4.5-4-6.7-8.7-6.7-14.2c0-3.6,0.8-6.4,2.5-8.5s5.7-5.2,12.1-9.6c3.7-2.6,6.3-6.6,7.7-12c1.4-5.4,2.9-17.1,4.6-35.1
		c2.4-28,3.6-62.4,3.6-103.3c0-15-1-25-3-29.9s-6.6-9-13.9-12.2c-8.5-3.6-12.7-8.9-12.7-15.8c0-5.6,2.5-10.3,7.6-13.8
		c5.1-3.6,11.6-5.4,19.5-5.4c4.4,0,9.9,0.2,16.7,0.6c11.3,0.5,23.5,0.8,36.5,0.8c9.6,0,28.5-0.4,56.7-1.2c8.8-0.2,16.8-0.4,24-0.4
		c17,0,30.8,1.4,41.2,4.1c10,2.5,19.3,7.3,27.2,13.9c12.6,10.7,18.8,24.9,18.8,42.7c0,8.9-1.9,17.7-5.5,25.8
		c-3.3,7.8-8.4,14.7-15,20.1c-4.5,3.6-6.7,6.9-6.7,9.8c0,3.2,2.7,5.9,8.1,8.1c10.5,4.2,20.1,11.3,28.7,21.3
		c8.8,10.4,13.3,23.4,13.3,39c0,18.5-6.7,35.3-20.2,50.6c-17.8,20.1-44.2,30.2-79,30.2c-4.7,0-16.4-0.3-35-1
		C156.3,309.1,145.9,308.7,142,308.6z M155.3,100v39.6c0,6.3,0.8,10.7,2.4,13.3s4.4,3.9,8.4,3.8c9.5,0,16.5-2.9,21-8.8
		c4.5-5.8,6.7-15,6.7-27.4c0-12.1-2.3-21.4-6.9-28s-11.1-9.9-19.6-9.9c-4.5,0-7.6,1.2-9.3,3.8C156.2,88.9,155.3,93.4,155.3,100z
		 M155.3,210.7V229c0,16.8,1.2,28,3.7,33.5c2.4,5.5,7.4,8.3,14.8,8.3c19.5,0,29.2-11.4,29.2-34.2c0-28.5-10.9-42.7-32.7-42.7
		c-5.6,0-9.5,1.2-11.7,3.7C156.4,199.9,155.3,204.3,155.3,210.7z"/>
	<path class="st3" d="M342.1,317.6c-9.4,0.1-18.4-3.5-25.2-10c-7.2-6.7-11.1-16.2-10.9-26c0-10.5,3.7-19.3,10.9-26
		c6.8-6.4,15.8-10,25.1-10c9.4-0.1,18.4,3.5,25.2,10c7.2,6.8,10.9,15.7,10.9,26.4c0.2,9.7-3.8,19-10.9,25.6
		C360.6,314.1,351.5,317.7,342.1,317.6z"/>
	<path class="st4" d="M342.2,249.1c8.5-0.1,16.6,3.2,22.7,9.1c6.5,6.1,9.8,14.1,9.8,23.8c0.2,8.7-3.4,17.1-9.8,23
		c-12.7,12.1-32.7,12.1-45.4,0c-6.4-6.1-10-14.6-9.7-23.4c0-9.5,3.3-17.3,9.8-23.4C325.6,252.4,333.7,249.1,342.2,249.1z"/>
	<path class="st1" d="M760.9,317.6c-9.4,0.1-18.4-3.5-25.2-10c-7.2-6.7-11.1-16.2-10.9-26c0-10.5,3.7-19.3,10.9-26
		c6.8-6.4,15.8-10,25.1-10c9.4-0.1,18.5,3.5,25.2,10.1c7.2,6.8,10.9,15.7,10.9,26.4c0.2,9.7-3.8,19-10.9,25.6
		C779.3,314.1,770.3,317.7,760.9,317.6z"/>
	<path class="st5" d="M760.9,249.1c8.5-0.1,16.6,3.2,22.7,9.1c6.5,6.1,9.8,14.1,9.8,23.8c0.2,8.7-3.4,17.1-9.8,23
		c-12.7,12.1-32.7,12.1-45.4,0c-6.4-6-10-14.6-9.8-23.4c0-9.5,3.3-17.3,9.8-23.4C744.3,252.4,752.5,249.1,760.9,249.1z"/>
	<path class="st1" d="M1123,317.6c-9.4,0.1-18.4-3.5-25.2-10c-7.2-6.7-11.1-16.2-10.9-26c0-10.5,3.7-19.3,10.9-26
		c6.8-6.4,15.8-10,25.1-10c9.4-0.1,18.5,3.5,25.2,10.1c7.2,6.8,10.9,15.7,10.9,26.4c0.2,9.7-3.8,19-10.9,25.6
		C1141.4,314.1,1132.4,317.7,1123,317.6z"/>
	<path class="st6" d="M1123,249.1c8.5-0.1,16.6,3.2,22.7,9.1c6.5,6.1,9.8,14.1,9.8,23.8c0.2,8.7-3.4,17.1-9.8,23
		c-12.7,12.1-32.7,12.1-45.4,0c-6.4-6-10-14.6-9.8-23.4c0-9.5,3.3-17.3,9.8-23.4C1106.4,252.4,1114.6,249.1,1123,249.1z"/>
	<path class="st1" d="M643.3,316.4c-29,0-50.9-1.2-65-3.7c-7.1-1.3-12.8-3.9-17.1-7.9c-4.4-3.9-6.9-9.5-6.8-15.4
		c0-4.8,1.3-8.6,4-11.4c2.4-2.6,6.5-4.8,12.5-6.8c5.8-2,6.6-4.8,6.6-7c0-4.6-1.4-10-12.5-11.6c-10.9-1.5-26.6-2.3-46.6-2.3
		c-22.2,0-27.5,1.8-28.7,2.5c-1.4,0.9-2.8,2.7-4,5.4c-1.2,2.5-1.9,5.3-2,8.1c-0.1,0.9,0.1,1.8,0.3,2.7c0.5,0.3,2.5,1.3,9.5,3.5
		c11.8,3.5,14.2,11.3,14.2,17.3c0,9.2-5.3,16.1-15.9,20.5c-9.7,4-23.6,6-42.5,6c-21.3,0-36.6-1.4-46.8-4.4
		c-10.5-3.2-16-10.5-16-21.2c0-4.9,1.3-8.8,3.9-11.7c2.4-2.7,6.4-4.9,12.1-6.9c7.6-2.7,13.5-6.5,17.3-11.3
		c4.1-5,10.1-16.3,17.9-33.4l27.1-59.4c9.8-21.5,16.5-37.8,19.8-48.5c3.2-10,4.9-20.3,5.1-30.8c0.1-11.5,0.8-19.3,2.2-23.9
		c1.4-4.9,4.5-9.7,9.1-14.2c9.5-9.6,21.7-14.5,36.3-14.5c13.8,0,27,5.4,39.5,16.1c17,14.3,40.7,54.3,72.5,122.2l36.3,77.9
		c4,8.4,6.5,11.8,7.9,13.1c1.8,1.7,4.7,2.9,8.7,3.6c13.9,2.1,16.9,10.7,16.9,17.6c0,11-6.5,18.9-19.3,23.6
		C688.1,314.4,669.6,316.4,643.3,316.4z M528.7,148.9c-3.8,0-6.8,6.6-8.2,10.5l0,0.1v0.1c-0.3,0.8-1.6,3.8-5.5,13.5
		c-7.2,17.6-7.8,21.4-7.8,22.1c0,0.1,0,0.2,0,0.2c0,0,0.9,1,5.2,1h37.7c5,0,6.5-0.8,6.8-1.1c-0.1-1.8-1.6-8.1-13.9-29.3
		c-4.2-7.3-7.4-12.2-9.6-14.6C531.7,149.8,530.2,148.9,528.7,148.9z"/>
	<path class="st7" d="M646.2,175.9l36.3,77.9c3.5,7.2,6.3,11.9,8.7,14.1c2.3,2.2,5.8,3.8,10.6,4.5c9.2,1.4,13.8,6.1,13.8,14
		c0,9.3-5.6,16.1-16.9,20.2s-29.7,6.2-55.4,6.2c-29,0-50.5-1.2-64.4-3.7c-6.4-1.2-11.5-3.5-15.3-7c-3.7-3.2-5.7-7.9-5.7-12.8
		c0-3.8,1-6.8,3-8.9s5.7-4.1,11.1-5.9c6-2.1,9-5.5,9-10.4c0-8.6-5.2-13.7-15.6-15.2c-11.2-1.5-26.9-2.3-47.1-2.3
		c-17.1,0-27.2,1-30.6,3.1c-2,1.3-3.8,3.6-5.4,6.9c-1.5,3-2.3,6.3-2.3,9.6c0,2.8,0.5,4.7,1.6,5.5s4.6,2.2,10.7,4.1
		c7.8,2.3,11.7,6.9,11.7,13.8c0,15.3-18.3,22.9-54.8,22.9c-20.8,0-36-1.4-45.8-4.2c-9-2.7-13.5-8.6-13.5-17.7c0-4,1-7.1,3-9.2
		s5.6-4.2,10.7-6c8.3-2.9,14.7-7.1,19-12.4s10.4-16.7,18.4-34.1l27.1-59.4c10-21.8,16.7-38.1,20.1-48.9c3.3-10.3,5.1-21,5.3-31.8
		c0.1-11,0.8-18.7,2-23s3.9-8.5,8.2-12.6c8.9-9,20.1-13.5,33.8-13.5c12.9,0,25.3,5.1,37.1,15.2C591.1,68.8,614.9,109.1,646.2,175.9z
		 M512.4,200.2H550c6.9,0,10.4-1.5,10.4-4.6c0-4.2-4.8-14.6-14.4-31.2c-4.4-7.6-7.7-12.6-10-15.2c-2.3-2.6-4.7-3.8-7.3-3.8
		c-4.6,0-8.5,4.3-11.5,12.9c-0.5,1.2-2.4,5.7-5.6,13.7c-5.4,13.1-8.1,20.9-8.1,23.5C503.5,198.6,506.5,200.2,512.4,200.2
		L512.4,200.2z"/>
	<path class="st1" d="M947.6,313.8l-20-0.6c-15.4-0.5-29.1-0.8-40.8-0.8h-13.8c-8,0-17,0.4-26.8,1.2c-6.4,0.5-10.8,0.8-13.3,0.8
		c-9.3,0-17.1-2.2-23.1-6.7c-6.3-4.7-9.5-10.9-9.5-18.5c0-5.4,1.5-9.8,4.5-13c2.8-3,7.2-5.3,13.2-7h0.1c4.2-1,6.9-2.6,8.2-4.7
		c1-1.7,2.5-5.7,3.7-15.4c1-9.4,1.9-28.2,2.8-55.8s1.2-55.5,1.2-82.8c0-12.7-1.2-17.9-2.2-20c-1.2-2.7-4.5-4.9-9.7-6.8
		c-12.9-4.9-15.7-13.8-15.7-20.5c0-7.5,3.8-13.7,10.9-17.8c6.6-3.8,15.8-5.8,27.3-5.8c3.6,0,7.7,0.1,12.8,0.2
		c10.7,0.4,18.6,0.6,23.4,0.6c18.2,0,39-0.6,61.9-1.7c4.9-0.3,11.1-0.4,18.4-0.4c29.7,0,53.5,3.4,70.9,10.2
		c26.1,10.3,46,27.8,59.2,52c11.6,21.2,17.6,46.8,17.6,75.9c0,15.1-2.2,30.1-6.5,44.6c-4.3,14.8-10.2,27.9-17.6,38.8
		c-15.3,22.1-36.6,37.8-63.4,46.8c-16.3,5.3-33.3,8-50.4,7.9L947.6,313.8z M943.9,88c-5.1,0-8.7,0.9-10.5,2.6s-2.7,5.1-2.7,9.7
		v148.8c0,7,1.4,12,4.1,14.6s7.7,4.1,14.8,4.1c35.4,0,52.6-26.8,52.6-81.8c0-30.7-4.3-54.7-12.7-71.5C980.5,96.7,965.5,88,943.9,88
		L943.9,88z"/>
	<path class="st8" d="M886.7,308.8h-13.8c-8.1,0-17.1,0.4-27.1,1.2c-6.3,0.5-10.6,0.8-13.1,0.8c-8.6,0-15.6-2-21-6
		s-8.1-9.2-8.1-15.6c0-4.5,1.2-8,3.6-10.5s6.3-4.5,11.6-6.1c5.1-1.3,8.6-3.4,10.4-6.2s3.2-8.5,4.2-16.8c1-9.6,2-28.3,2.8-56.2
		c0.8-27.8,1.3-55.4,1.3-82.8c0-10.8-0.8-17.9-2.5-21.5c-1.7-3.6-5.6-6.5-11.7-8.7c-8.8-3.3-13.3-9-13.3-17.1c0-6.3,3-11.2,9.1-14.7
		s14.6-5.3,25.5-5.3c3.6,0,7.8,0.1,12.7,0.2c10.8,0.4,18.6,0.6,23.5,0.6c18.3,0,39-0.6,62.1-1.7c4.9-0.2,11-0.4,18.3-0.4
		c29.3,0,52.5,3.3,69.6,10c25.4,10,44.5,26.8,57.3,50.4c11.4,20.8,17.1,45.5,17.1,74.2c0,14.7-2.2,29.4-6.3,43.6
		c-4.2,14.6-9.9,27.2-17.1,37.8c-14.9,21.5-35.4,36.7-61.5,45.4c-15.9,5.2-32.5,7.8-49.2,7.7l-23.3-0.8l-20-0.6
		C912.2,309.1,898.5,308.8,886.7,308.8z M927.1,100.4v148.9c0,8.1,1.7,13.8,5.2,17.2c3.5,3.4,9.2,5.1,17.3,5.1
		c37.4,0,56.1-28.5,56.2-85.4c0-31.4-4.4-55.8-13.1-73.1c-9.6-19.1-25.9-28.7-48.8-28.7c-6.2,0-10.5,1.2-13,3.7
		S927.1,94.6,927.1,100.4L927.1,100.4z"/>
	<path d="M1210,119.3c-0.7-0.8-1.7-1.3-2.8-1.5c-0.6,0-1.2,0.5-2,1.5c-0.5,0.8-1.2,1.5-1.8,2.1c-0.4,0.4-0.9,0.6-1.4,0.6
		c-0.7,0-1-0.3-1-1c0-0.4,0.1-0.8,0.2-1.1c0.8-3,1.6-6.1,2.3-9.3l7.2-34.2c0.1-0.7,0.2-1.2,0.2-1.3c0.1-1-0.6-1.8-1.5-2
		c-0.2,0-0.8-0.2-1.7-0.3c-0.6-0.1-1.1-0.2-1.7-0.3c-0.3-0.1-0.5-0.4-0.5-0.7c0-0.5,0.3-0.9,0.7-1.1c0.5-0.3,1.1-0.5,1.7-0.7
		c3-0.6,6-1.1,9-1.4c1.2,0,1.7,0.4,1.7,1.3c0,0.3,0,0.5-0.1,0.8l-4.9,23.2c-0.2,0.8-0.2,1.3,0.1,1.3s0.4-0.3,0.9-1
		c4.1-5.8,8.6-8.7,13.5-8.7c2.6-0.1,5,1,6.7,3c1.7,2,2.5,5,2.5,8.9c-0.1,3.9-0.8,7.8-2.3,11.4c-1.4,3.8-3.7,7.2-6.6,9.9
		c-2.7,2.6-6.4,4-10.1,4C1215.1,122.6,1212.2,121.4,1210,119.3z M1224.1,115.8c2-2.4,3.6-5.2,4.5-8.2c1-2.7,1.5-5.5,1.6-8.3
		c0-2.8-0.5-4.9-1.6-6.2c-1-1.3-2.6-2.1-4.2-2c-2.1,0.1-4.2,0.9-5.8,2.4c-2,1.7-3.6,3.7-4.9,5.9c-1.3,2.2-2.2,4.5-2.8,7
		c-0.5,1.8-0.7,3.6-0.8,5.4c-0.1,2,0.6,4.1,2,5.6c1.3,1.4,3.2,2.1,5.1,2C1220,119.2,1222.5,117.9,1224.1,115.8z"/>
	<path d="M1256.5,121.7c-0.3-0.3-0.3-0.8-0.2-1.2c0.8-3.2,1.5-5.9,2-8.1l0.4-1.5l3.7-17.2c0.1-0.5,0.2-1,0.2-1.6
		c0-1.2-0.5-1.9-1.5-2c-1-0.1-2-0.2-3-0.4c-0.5-0.1-0.8-0.4-0.8-0.9c0-0.5,0.3-0.9,0.7-1.2c0.7-0.3,1.4-0.6,2.2-0.7
		c2.8-0.6,5.7-1,8.6-1.3c1.2,0,1.8,0.4,1.8,1.3c0,0.3-0.1,0.6-0.2,0.8l-1.4,6.5c-0.2,0.8-0.2,1.2,0.2,1.2c0.1,0,0.3-0.1,0.4-0.2
		c0.2-0.1,0.3-0.3,0.4-0.5c1.5-2.6,3.5-4.9,5.8-6.8c1.8-1.6,4.1-2.5,6.6-2.6c1.8-0.1,3.5,0.6,4.6,2c1.1,1.4,1.7,3.2,1.6,5
		c0.1,1.7-0.3,3.4-1.1,4.8c-0.6,1-1.7,1.6-2.9,1.6c-1.2,0.1-2.2-0.8-2.3-2c0,0,0,0,0,0c0-0.2,0-0.9,0-2c0.1-0.9-0.2-1.9-0.8-2.6
		c-0.6-0.7-1.5-1.1-2.4-1c-1.9,0.1-3.6,0.9-5,2.2c-1.9,1.6-3.6,3.6-4.8,5.9c-1.5,2.6-2.5,5.5-3.1,8.4l-0.6,3.1
		c-1,4.7-1.5,7.8-1.7,9.1c0,0.8-0.5,1.6-1.3,1.9c-1.5,0.4-3.1,0.6-4.7,0.6C1257.3,122.3,1256.8,122.1,1256.5,121.7z"/>
	<path d="M1307.2,118.7c-2.4-2.5-3.7-6-3.7-10.5c0.1-3.2,0.8-6.4,2-9.4c1.4-3.6,3.7-6.9,6.6-9.4c3.1-2.7,7-4,11.8-4
		c4.3,0,7.7,1.3,10.1,3.8c2.4,2.5,3.6,6,3.6,10.5c-0.1,3.2-0.8,6.4-2,9.4c-1.4,3.6-3.6,6.8-6.6,9.4c-3,2.7-6.9,4-11.7,4
		C1313.1,122.6,1309.7,121.3,1307.2,118.7z M1325.1,115.6c2-2.5,3.4-5.4,4.3-8.5c0.9-2.8,1.4-5.6,1.5-8.5c0.1-2.6-0.5-5.1-1.9-7.3
		c-1.4-1.8-3.6-2.8-5.8-2.7c-2.7,0-5.3,1.4-6.9,3.6c-2,2.5-3.4,5.4-4.3,8.4c-0.9,2.7-1.3,5.5-1.4,8.4c-0.1,2.6,0.5,5.2,1.9,7.4
		c1.4,1.8,3.6,2.8,5.8,2.7C1321,119.2,1323.5,117.9,1325.1,115.6z"/>
	<path d="M1376.7,116.3c-1.7-4.5-2.7-9.3-3.1-14.1c0-1-0.3-1.5-0.6-1.5s-0.7,0.4-1.3,1.1l-4.2,5.8c-0.5,0.7-0.9,1.3-1.2,2.1
		c-0.3,0.6-0.5,1.3-0.7,2c-0.7,3.7-1.2,6.4-1.5,8.1c0,0.8-0.5,1.6-1.3,1.9c-1.5,0.4-3.1,0.6-4.6,0.6c-0.5,0-0.9-0.1-1.2-0.5
		c-0.3-0.3-0.3-0.8-0.2-1.2c0.4-1.7,0.7-2.4,0.6-2.3c0.7-2.7,1.3-5.1,1.7-7.3l7.4-34.6c0.1-0.4,0.1-0.9,0.2-1.3c0.1-1-0.6-1.8-1.5-2
		c-0.2,0-0.8-0.2-1.7-0.3c-0.6-0.1-1.1-0.2-1.7-0.3c-0.3-0.1-0.5-0.4-0.5-0.7c0-0.5,0.3-0.9,0.7-1.1c0.5-0.3,1.1-0.5,1.7-0.7
		c3-0.6,6-1.1,9-1.4c1.2,0,1.7,0.4,1.7,1.3c0,0.3,0,0.5-0.1,0.8l-6.6,31.2v0.4c0,0.3,0.1,0.4,0.2,0.4s0.4-0.2,0.8-0.5
		c3.1-4.3,6.6-8.3,10.3-12c3.2-3,6.3-4.5,9.3-4.5c1.6-0.1,3.1,0.4,4.3,1.4c1.1,0.9,1.7,2.2,1.7,3.6c0.1,0.9-0.2,1.7-0.7,2.5
		c-0.4,0.6-1.1,0.9-1.9,0.9c-0.6,0.1-1.1-0.2-1.5-0.6c-0.3-0.5-0.5-1.1-0.6-1.7c0-0.6-0.3-1.3-0.7-1.8c-0.5-0.4-1.2-0.6-1.9-0.6
		c-1.9,0-4.3,1.6-7.2,4.8c-0.4,0.3-0.7,0.7-0.9,1.2c-0.1,0.6-0.2,1.2-0.1,1.7c0.6,5.1,1.6,10.1,3.1,15.1c1.2,3.8,3,5.6,5.5,5.6
		c1.2,0,2.3-0.5,3-1.3c0.8-1.1,1.4-2.4,1.8-3.7c0.2-0.3,0.5-0.5,0.9-0.5c0.3,0,0.6,0.2,0.8,0.5c0.2,0.3,0.3,0.7,0.2,1.1
		c-1.7,5.9-4.9,8.9-9.6,8.9C1380.9,122.6,1378.3,120.5,1376.7,116.3z"/>
	<path d="M1416.1,118.8c-2.3-2.7-3.5-6.3-3.3-9.9c0-4,0.9-7.9,2.6-11.4c1.6-3.5,4.1-6.5,7.3-8.8c3-2.2,6.7-3.4,10.5-3.4
		c2.4-0.1,4.7,0.7,6.5,2.2c1.6,1.4,2.5,3.4,2.4,5.6c0.1,3.7-1.7,7.2-4.7,9.3c-3.2,2.3-8.7,3.8-16.5,4.7c-0.2,0-0.5,0.1-0.6,0.3
		c-0.2,0.3-0.2,0.6-0.2,0.9c-0.1,2.5,0.6,5,2,7c1.3,1.8,3.4,2.6,6.3,2.6c1.8,0,3.6-0.4,5.1-1.3c1.7-1.1,3.2-2.4,4.6-3.9
		c0.3-0.4,0.8-0.6,1.4-0.7c0.3,0,0.5,0.1,0.7,0.3c0.2,0.2,0.3,0.5,0.3,0.8c0,0.4-0.1,0.7-0.3,1c-1.5,2.5-3.5,4.6-6,6.2
		c-2.5,1.6-5.5,2.5-8.5,2.5C1421.4,122.6,1418.3,121.3,1416.1,118.8z M1432.3,101c2.9-1.2,4.8-4,4.7-7.1c0.1-1.3-0.3-2.6-1.2-3.7
		c-1-1-2.3-1.5-3.7-1.4c-2.2,0-4.2,0.8-5.8,2.3c-1.8,1.6-3.2,3.5-4.3,5.7c-1,2-1.7,4.2-2,6.5v0.2c0,0.6,0.3,0.8,1.1,0.7
		C1425,103.6,1428.7,102.5,1432.3,101z"/>
	<path d="M1485.7,121c-1-1.3-1.6-2.9-1.5-4.6c0-1.3,0.2-2.7,0.5-4l3.1-13c0.3-1.1,0.4-2.2,0.4-3.4c0.1-1.4-0.3-2.7-1.2-3.8
		c-0.9-0.9-2.1-1.3-3.3-1.3c-2,0.1-3.9,0.8-5.5,2.1c-2,1.6-3.7,3.6-5,5.9c-1.5,2.7-2.6,5.6-3.2,8.6l-0.9,4.6
		c-0.9,4.7-1.4,7.2-1.4,7.6c0,0.8-0.5,1.6-1.3,1.9c-1.5,0.4-3.1,0.6-4.7,0.6c-0.5,0-0.9-0.1-1.2-0.5c-0.3-0.3-0.3-0.8-0.2-1.2
		c1.2-4.9,3.2-13.8,6-26.9c0.1-0.5,0.1-1,0.2-1.4c0.1-1-0.6-1.8-1.5-2l-1.7-0.3c-0.5-0.1-1.1-0.2-1.6-0.3c-0.3-0.1-0.5-0.3-0.5-0.6
		c0-0.5,0.2-0.9,0.6-1.2c0.6-0.3,1.2-0.6,1.8-0.7c3-0.6,6-1.1,9-1.4c1.2,0,1.7,0.4,1.7,1.2c0,0.3-0.1,0.6-0.2,0.8l-1.3,6.1
		c-0.2,0.9-0.2,1.3,0.2,1.3c0.2,0,0.3-0.2,0.6-0.6c3.9-6.2,8.5-9.3,14-9.3c2.1-0.1,4.1,0.7,5.6,2.2c1.5,1.7,2.3,3.9,2.1,6.1
		c0,1.4-0.2,2.8-0.5,4.1l-3.5,15c-0.2,0.6-0.2,1.1-0.2,1.7c0,0.7,0.1,1.5,0.6,2.1c0.4,0.5,1,0.8,1.7,0.7c1,0,1.9-0.5,2.4-1.3
		c0.9-1.2,1.6-2.6,2.1-4c0.2-0.4,0.6-0.6,1-0.7c0.3,0,0.6,0.1,0.8,0.4c0.3,0.3,0.4,0.6,0.4,1c0,0.4-0.1,0.7-0.2,1.1
		c-0.8,2.4-2.1,4.6-3.9,6.4c-1.6,1.6-3.8,2.5-6,2.5C1488.5,122.8,1486.9,122.1,1485.7,121z"/>
	<path d="M1203.2,196.3c-1.8-2-2.7-4.9-2.7-8.7c0-4,0.8-8,2.3-11.7c1.4-3.8,3.7-7.1,6.7-9.8c2.8-2.5,6.4-3.9,10.2-3.9
		c1.8-0.1,3.5,0.4,5,1.3c1.3,0.9,2.5,1.9,3.5,3.1c0.6,0.7,1.5,1.2,2.4,1.3c0.3,0,0.7-0.1,0.9-0.4c0.4-0.6,0.8-1.2,1.1-1.9
		c0.4-0.9,0.9-1.8,1.5-2.7c0.3-0.4,0.7-0.6,1.2-0.6c0.4,0,0.8,0.1,1,0.4c0.2,0.3,0.3,0.7,0.2,1l-5.6,25.9c-0.1,0.6-0.2,1.2-0.2,1.7
		c0,0.7,0.2,1.4,0.6,2c0.4,0.5,1.1,0.8,1.8,0.8c1.8,0,3.4-1.8,4.7-5.3c0.2-0.4,0.7-0.6,1.1-0.6c0.3,0,0.5,0.1,0.7,0.3
		c0.2,0.3,0.3,0.6,0.3,0.9c0,0.4-0.1,0.8-0.3,1.2c-0.8,2.4-2.1,4.6-3.9,6.4c-1.5,1.5-3.5,2.4-5.7,2.4c-1.6,0.1-3.1-0.5-4.2-1.7
		c-1-1.3-1.5-2.9-1.4-4.5c0-0.9,0.1-1.8,0.3-2.6v-0.3c0-0.2,0-0.3-0.1-0.5c0-0.1-0.1-0.2-0.2-0.2c-0.2,0-0.4,0.2-0.5,0.5
		c-1.7,2.5-3.7,4.8-6,6.7c-2,1.7-4.6,2.6-7.3,2.6C1207.8,199.5,1205.1,198.4,1203.2,196.3z M1219.2,191.7c1.8-1.7,3.4-3.6,4.6-5.8
		c1.2-2,2.1-4.2,2.7-6.5c0.3-1.1,0.6-2.3,0.8-3.5c0.1-0.9,0.2-1.9,0.2-2.9c0.1-2-0.6-3.9-1.9-5.5c-1.2-1.4-3-2.1-4.9-2.1
		c-2.6,0-5.1,1.2-6.8,3.2c-2.1,2.3-3.6,5-4.6,8c-1,2.8-1.6,5.8-1.6,8.8c-0.1,2.2,0.4,4.4,1.6,6.3c1,1.4,2.6,2.2,4.3,2.2
		C1215.7,194,1217.7,193.2,1219.2,191.7L1219.2,191.7z"/>
	<path d="M1283.1,197.7c-1-1.3-1.6-2.9-1.5-4.6c0-1.3,0.2-2.7,0.5-4l3.1-13c0.3-1.1,0.4-2.2,0.4-3.4c0.1-1.4-0.3-2.7-1.2-3.8
		c-0.9-0.9-2.1-1.3-3.3-1.3c-2,0.1-3.9,0.8-5.5,2.1c-2,1.6-3.7,3.6-5,5.9c-1.5,2.7-2.6,5.6-3.2,8.6l-0.9,4.6
		c-0.9,4.7-1.4,7.2-1.4,7.6c0,0.8-0.5,1.6-1.3,1.9c-1.5,0.4-3.1,0.6-4.7,0.6c-0.5,0-0.9-0.1-1.2-0.5c-0.3-0.3-0.3-0.8-0.2-1.2
		c1.2-4.9,3.2-13.8,5.9-26.9c0.1-0.5,0.1-1,0.2-1.4c0.1-1-0.6-1.8-1.5-2l-1.7-0.3c-0.5-0.1-1.1-0.2-1.6-0.3
		c-0.3-0.1-0.5-0.3-0.5-0.6c0-0.5,0.2-1,0.6-1.2c0.6-0.3,1.2-0.5,1.8-0.7c3-0.6,6-1.1,9-1.3c1.2,0,1.7,0.4,1.7,1.2
		c0,0.3-0.1,0.6-0.2,0.8l-1.3,6.1c-0.2,0.9-0.2,1.4,0.2,1.4s0.3-0.2,0.6-0.6c3.9-6.2,8.5-9.3,14-9.3c2.1-0.1,4.1,0.7,5.6,2.2
		c1.5,1.7,2.3,3.9,2.1,6.1c0,1.4-0.2,2.8-0.5,4.2l-3.5,15c-0.1,0.6-0.2,1.2-0.2,1.7c0,0.7,0.2,1.5,0.6,2.1c0.4,0.5,1.1,0.8,1.7,0.7
		c1,0,1.9-0.5,2.4-1.3c0.9-1.2,1.6-2.6,2.1-4c0.2-0.4,0.6-0.6,1-0.7c0.3,0,0.6,0.1,0.8,0.4c0.3,0.3,0.4,0.7,0.4,1.1
		c0,0.4-0.1,0.7-0.2,1c-0.8,2.4-2.1,4.6-3.9,6.4c-1.6,1.6-3.8,2.5-6,2.4C1285.9,199.5,1284.3,198.9,1283.1,197.7z"/>
	<path d="M1317.5,195.6c-2.3-2.5-3.5-5.9-3.5-10c0-3.8,0.9-7.6,2.6-11.1c1.6-3.5,4.2-6.6,7.3-8.8c3.1-2.3,6.8-3.5,10.7-3.4
		c1.8,0,3.5,0.4,5.1,1.2c1.6,0.7,3,1.8,4,3.3c1,1.4,1.5,3,1.5,4.8c0,1.1-0.2,2.3-0.8,3.3c-0.4,0.8-1.3,1.4-2.3,1.3
		c-0.9,0-1.5-0.3-1.8-0.8c-0.3-0.6-0.5-1.3-0.5-2c-0.1-0.8-0.1-1.3-0.2-1.7c-0.3-4-2.2-6-5.6-6c-2.5,0-4.9,1-6.7,2.8
		c-2.1,1.9-3.6,4.3-4.6,7c-1.1,2.8-1.6,5.7-1.6,8.7c-0.1,2.7,0.6,5.4,2.2,7.7c1.5,2,3.9,3.1,6.4,2.9c3.6,0,7-1.8,10.3-5.3
		c0.3-0.4,0.8-0.7,1.3-0.8c0.3,0,0.5,0.1,0.7,0.3c0.2,0.2,0.2,0.5,0.2,0.8c0,0.3-0.1,0.6-0.2,0.9c-1.7,2.5-3.8,4.6-6.3,6.2
		c-2.6,1.7-5.6,2.5-8.7,2.5C1323,199.3,1319.8,198.1,1317.5,195.6z"/>
	<path d="M1384.9,193.2c0-1.3,0.2-2.7,0.5-4l3-13c0.3-1.1,0.4-2.2,0.4-3.3c0.1-1.4-0.3-2.8-1.2-3.8c-0.8-0.9-2-1.3-3.2-1.3
		c-2,0.1-4,0.8-5.5,2.1c-2,1.6-3.7,3.6-5,5.9c-1.5,2.7-2.6,5.6-3.1,8.6c-0.9,4.3-1.7,8.4-2.3,12.2c0,0.8-0.5,1.6-1.3,1.9
		c-1.5,0.4-3.1,0.6-4.6,0.6c-0.5,0-0.9-0.1-1.2-0.5c-0.3-0.3-0.3-0.8-0.2-1.2c0.2-0.7,0.4-1.4,0.5-2.2c0.6-2.1,1.2-4.6,1.8-7.4
		l7.3-34.5c0.1-0.5,0.1-1,0.2-1.4c0.1-1-0.6-1.8-1.5-2c-0.2,0-0.8-0.2-1.7-0.3c-0.6-0.1-1.1-0.2-1.7-0.3c-0.3-0.1-0.5-0.4-0.5-0.7
		c0-0.5,0.3-0.9,0.7-1.1c0.5-0.3,1.1-0.5,1.7-0.7c3-0.6,6-1.1,9-1.3c1.2,0,1.7,0.4,1.7,1.3c0,0.3,0,0.5-0.1,0.8l-5,23.3
		c-0.2,0.8-0.2,1.3,0.2,1.3s0.3-0.2,0.6-0.5c3.9-6.2,8.6-9.3,14.1-9.3c2-0.1,4,0.7,5.5,2.1c1.5,1.7,2.3,3.9,2.1,6.1
		c0,1.4-0.2,2.8-0.5,4.2l-3.5,15c-0.1,0.5-0.2,1.1-0.2,1.7c0,0.8,0.2,1.5,0.6,2.1c0.4,0.5,1,0.8,1.7,0.8c1,0,1.9-0.5,2.4-1.3
		c0.9-1.3,1.6-2.6,2.1-4.1c0.2-0.4,0.6-0.6,1.1-0.6c0.3,0,0.6,0.1,0.8,0.4c0.3,0.3,0.4,0.7,0.4,1.1c0,0.4-0.1,0.7-0.2,1
		c-0.8,2.4-2.1,4.6-3.9,6.4c-1.6,1.6-3.8,2.5-6,2.4C1386.9,199.4,1384.9,197.3,1384.9,193.2z"/>
	<path d="M1420.9,195.5c-2.4-2.5-3.6-6-3.7-10.5c0.1-3.2,0.8-6.4,2-9.4c1.4-3.6,3.7-6.9,6.6-9.4c3.1-2.7,7-4,11.8-4
		c4.3,0,7.7,1.3,10.1,3.8s3.6,6,3.6,10.5c-0.1,3.2-0.8,6.4-2,9.4c-1.4,3.6-3.6,6.8-6.6,9.4c-3,2.7-6.9,4-11.7,4
		C1426.8,199.3,1423.4,198,1420.9,195.5z M1438.8,192.4c2-2.5,3.4-5.4,4.3-8.5c0.9-2.8,1.4-5.6,1.5-8.5c0.1-2.6-0.5-5.1-1.9-7.3
		c-1.4-1.8-3.6-2.8-5.8-2.7c-2.7,0-5.3,1.4-6.9,3.6c-2,2.5-3.4,5.4-4.3,8.4c-0.9,2.7-1.3,5.5-1.4,8.4c-0.2,2.6,0.5,5.2,1.9,7.4
		c1.4,1.8,3.6,2.8,5.8,2.7C1434.7,195.9,1437.2,194.6,1438.8,192.4z"/>
	<path d="M1468.7,198.5c-0.3-0.3-0.3-0.8-0.2-1.2c0.8-3.2,1.5-5.9,2-8.1l0.4-1.5l3.7-17.2c0.1-0.5,0.2-1,0.2-1.6
		c0-1.3-0.5-1.9-1.5-2c-1-0.1-2-0.2-3-0.4c-0.5-0.1-0.8-0.4-0.8-0.9c0-0.5,0.3-0.9,0.7-1.2c0.7-0.3,1.4-0.6,2.1-0.7
		c2.8-0.6,5.7-1,8.6-1.3c1.2,0,1.8,0.4,1.8,1.3c0,0.3-0.1,0.6-0.2,0.8l-1.4,6.5c-0.2,0.8-0.2,1.2,0.2,1.2c0.1,0,0.3-0.1,0.4-0.2
		c0.2-0.1,0.3-0.3,0.4-0.5c1.5-2.6,3.5-4.9,5.8-6.8c1.8-1.6,4.1-2.5,6.6-2.6c1.8-0.1,3.5,0.6,4.6,2c1.1,1.4,1.7,3.2,1.6,5
		c0.1,1.7-0.3,3.4-1.1,4.8c-0.6,1-1.7,1.6-2.9,1.6c-1.2,0.1-2.2-0.8-2.3-2c0,0,0,0,0,0c0-0.2,0-0.9,0-2c0.1-0.9-0.2-1.9-0.8-2.6
		c-0.6-0.7-1.5-1.1-2.4-1c-1.9,0.1-3.6,0.9-5,2.2c-1.9,1.6-3.6,3.6-4.8,5.9c-1.5,2.6-2.5,5.5-3.1,8.4l-0.6,3.1
		c-0.9,4.7-1.5,7.8-1.7,9.1c0,0.8-0.5,1.6-1.3,1.9c-1.5,0.4-3.1,0.6-4.7,0.6C1469.4,199,1469,198.8,1468.7,198.5z"/>
	<path d="M1203.3,275c-1.8-2-2.7-4.9-2.7-8.7c0-4,0.8-8,2.3-11.7c1.4-3.7,3.7-7.1,6.7-9.8c2.8-2.5,6.4-3.9,10.1-3.9
		c1.8-0.1,3.6,0.4,5.2,1.4c1.1,0.7,2.1,1.6,2.9,2.7c0.7,0.9,1.1,1.3,1.2,1.3s0.3-0.4,0.4-1.3l2.6-13.1c0.1-0.5,0.1-1,0.2-1.4
		c0.1-1-0.6-1.8-1.5-2l-1.7-0.3c-0.5-0.1-1.1-0.2-1.6-0.3c-0.3-0.1-0.5-0.3-0.4-0.6c0-0.5,0.2-0.9,0.6-1.2c0.6-0.3,1.2-0.5,1.8-0.7
		c3-0.6,6-1.1,9-1.4c1.2,0,1.7,0.4,1.7,1.2c0,0.3-0.1,0.6-0.2,0.8l-9,42.6c-0.1,0.5-0.1,1-0.2,1.5c0,1.8,0.7,2.6,2.2,2.6
		c1,0,2-0.5,2.6-1.4c0.9-1.2,1.7-2.6,2.2-4c0.3-0.3,0.7-0.5,1.1-0.5c0.6,0,0.9,0.4,0.9,1.1c0,0.4-0.1,0.9-0.3,1.3
		c-0.8,2.4-2.1,4.6-3.8,6.4c-1.5,1.5-3.5,2.4-5.6,2.4c-1.6,0.1-3.1-0.5-4.2-1.7c-1-1.3-1.5-2.8-1.4-4.4c0-0.9,0.1-1.9,0.3-2.8v-0.3
		c0-0.3-0.1-0.5-0.3-0.5s-0.4,0.2-0.7,0.5c-1.6,2.5-3.6,4.7-5.8,6.6c-2.1,1.7-4.7,2.7-7.3,2.6C1207.8,278.1,1205.1,277,1203.3,275z
		 M1219.3,270.3c1.9-1.7,3.4-3.6,4.6-5.8c1.2-2,2.1-4.1,2.7-6.4c0.6-2.1,1-4.2,1-6.4c0.1-2-0.6-3.9-1.8-5.5c-1.2-1.4-3-2.1-4.9-2.1
		c-2.6,0-5.1,1.2-6.8,3.2c-2.1,2.3-3.7,5-4.7,8c-1,2.8-1.6,5.8-1.7,8.8c0,2.8,0.5,5,1.6,6.4c1,1.4,2.6,2.2,4.3,2.2
		C1215.7,272.7,1217.7,271.8,1219.3,270.3L1219.3,270.3z"/>
	<path d="M1260.3,271.9c0-1.4,0.2-2.7,0.5-4.1l4-18.8c0.1-0.5,0.2-0.9,0.2-1.4c0-1-0.6-1.8-1.6-2l-1.7-0.3c-0.5-0.1-1.1-0.2-1.6-0.3
		c-0.3-0.1-0.5-0.3-0.4-0.6c0-0.5,0.2-0.9,0.6-1.1c0.6-0.3,1.2-0.6,1.8-0.8c3-0.6,6-1.1,9-1.4c1.2,0,1.7,0.4,1.7,1.3
		c0,0.3-0.1,0.5-0.2,0.8l-5.3,25c-0.1,0.5-0.2,1.1-0.2,1.7c0,1.9,0.8,2.9,2.3,2.9c1.8,0,3.3-1.8,4.7-5.4c0.2-0.4,0.6-0.6,1-0.5
		c0.3,0,0.6,0.1,0.8,0.3c0.2,0.2,0.3,0.5,0.3,0.9c0,0.4-0.1,0.8-0.3,1.2c-0.8,2.4-2.1,4.6-3.9,6.4c-1.6,1.6-3.7,2.4-5.9,2.4
		C1262.3,278,1260.3,276,1260.3,271.9z M1267.6,234.3c-0.5-0.4-0.8-1-0.8-1.7c0.1-1.5,1-2.8,2.3-3.5c1.6-1,3.4-1.5,5.2-1.5
		c2,0,2.9,0.8,2.9,2.3c-0.1,1.5-0.9,2.8-2.3,3.5c-1.6,1-3.4,1.6-5.3,1.5C1269,235,1268.2,234.8,1267.6,234.3z"/>
	<path d="M1297.6,290.1c-2-0.7-3.8-2-5.2-3.6c-1-0.7-1.6-1.8-1.7-3c0-0.7,0.2-1.4,0.7-1.9c0.5-0.5,1.1-0.8,1.8-0.8
		c0.7,0,1.3,0.1,1.9,0.5c0.6,0.4,1.1,1,1.5,1.6c0.7,1.3,1.8,2.5,3,3.4c1.6,1,3.5,1.5,5.3,1.4c6.4,0,10.5-4.5,12.5-13.4l1.1-5.4v-0.4
		c0-0.3-0.1-0.6-0.2-0.6s-0.3,0-0.5,0.3c-1.7,2.5-3.7,4.7-6,6.5c-2.1,1.7-4.8,2.6-7.5,2.5c-2.8,0.2-5.5-1-7.3-3
		c-1.8-2-2.7-4.8-2.7-8.4c0-4,0.8-8,2.3-11.7c1.4-3.7,3.7-6.9,6.7-9.4c2.9-2.4,6.6-3.8,10.5-3.7c1.7-0.1,3.3,0.4,4.8,1.2
		c1.3,0.9,2.4,1.9,3.4,3.1c0.4,0.4,0.8,0.7,1.2,0.9c0.3,0.2,0.6,0.3,1,0.3c0.4,0,0.7-0.2,0.9-0.4c0.5-0.6,0.9-1.2,1.2-1.9
		c0.4-0.9,1-1.8,1.6-2.7c0.3-0.4,0.7-0.6,1.1-0.6c0.4,0,0.8,0.1,1,0.4c0.2,0.3,0.3,0.7,0.2,1l-6.8,31.9c-1.3,6-3.7,10.3-7.2,13
		c-3.5,2.7-7.8,4.1-12.1,4C1302,291.2,1299.8,290.8,1297.6,290.1z M1313.4,269.6c1.8-1.6,3.2-3.4,4.4-5.5c1.1-2,2-4.1,2.6-6.2
		c0.3-1.1,0.6-2.2,0.8-3.3c0.1-0.9,0.2-1.9,0.2-2.8c0.1-2-0.6-3.9-1.8-5.4c-1.2-1.4-2.9-2.2-4.7-2.1c-2.6,0-5.1,1.1-6.8,3.1
		c-2.1,2.2-3.7,4.8-4.7,7.7c-1.1,2.8-1.6,5.8-1.7,8.7c-0.1,2.2,0.4,4.3,1.7,6.1c1.1,1.4,2.9,2.2,4.7,2.1
		C1310,271.9,1312,271.1,1313.4,269.6z"/>
	<path d="M1349.3,271.9c0-1.4,0.2-2.7,0.5-4.1l4-18.8c0.1-0.5,0.2-0.9,0.2-1.4c0-1-0.6-1.8-1.6-2l-1.7-0.3c-0.5-0.1-1.1-0.2-1.6-0.3
		c-0.3-0.1-0.5-0.3-0.4-0.6c0-0.5,0.2-0.9,0.6-1.1c0.6-0.3,1.2-0.6,1.8-0.8c3-0.6,6-1.1,9-1.4c1.2,0,1.7,0.4,1.7,1.3
		c0,0.3-0.1,0.5-0.2,0.8l-5.3,25c-0.1,0.5-0.2,1.1-0.2,1.7c0,1.9,0.8,2.9,2.3,2.9c1.8,0,3.3-1.8,4.7-5.4c0.2-0.4,0.6-0.6,1-0.5
		c0.3,0,0.6,0.1,0.8,0.3c0.2,0.2,0.3,0.5,0.3,0.9c0,0.4-0.1,0.8-0.3,1.2c-0.8,2.4-2.1,4.6-3.9,6.4c-1.6,1.6-3.7,2.4-5.9,2.4
		C1351.3,278,1349.3,276,1349.3,271.9z M1356.6,234.3c-0.5-0.4-0.8-1-0.8-1.7c0.1-1.5,1-2.8,2.3-3.5c1.6-1,3.4-1.5,5.2-1.5
		c1.9,0,2.9,0.8,2.9,2.3c-0.1,1.5-0.9,2.8-2.3,3.5c-1.6,1-3.4,1.6-5.3,1.5C1358,235,1357.3,234.8,1356.6,234.3L1356.6,234.3z"/>
	<path d="M1386.1,270.1c0-1.4,0.2-2.8,0.4-4.1l4.1-19.6l0.1-0.4c0-0.7-0.4-1-1.4-1h-1c-0.5,0.1-1.1-0.3-1.1-0.9c0-0.1,0-0.2,0-0.3
		c0.1-0.9,0.6-1.7,1.2-2.4c1.1-1.3,2.2-2.5,3.5-3.6c1.9-1.8,3.4-3.2,4.5-4.1c0.8-0.8,1.7-1.3,2.8-1.4c0.5-0.1,0.9,0.2,1,0.7
		c0,0.1,0,0.2,0,0.3c0,0.3,0,0.7-0.1,1l-1.1,4.8c-0.2,1.2-0.3,1.8-0.3,1.9c0,0.3,0,0.5,0.2,0.6c0.2,0.1,0.4,0.1,0.6,0.1h10.5
		c0.3,0,0.7,0,1,0.2c0.2,0.1,0.3,0.4,0.3,0.6c0,0.7-0.2,1.4-0.8,1.8c-0.5,0.5-1.1,0.7-1.8,0.7h-9.3c-1-0.1-1.8,0.6-2,1.5l-3.9,18.6
		c-0.2,1-0.4,2-0.4,3c-0.1,1.4,0.3,2.8,1.2,3.8c0.9,0.9,2.2,1.4,3.5,1.3c1.4,0,2.9-0.4,4.2-1c1.6-0.8,3-1.9,4.1-3.3
		c0.3-0.4,0.8-0.7,1.4-0.8c0.2,0,0.4,0.1,0.6,0.3c0.1,0.2,0.2,0.4,0.2,0.6c0,0.3-0.1,0.5-0.2,0.8c-3.1,5.5-7.6,8.2-13.5,8.2
		C1389,277.9,1386.1,275.3,1386.1,270.1z"/>
	<path d="M1427.8,275c-1.8-2-2.7-4.9-2.7-8.7c0-4,0.8-8,2.3-11.7c1.4-3.8,3.7-7.1,6.7-9.8c2.8-2.5,6.4-3.9,10.2-3.9
		c1.8-0.1,3.5,0.4,5,1.3c1.3,0.9,2.5,1.9,3.5,3.1c0.6,0.7,1.5,1.2,2.4,1.3c0.3,0,0.7-0.2,0.9-0.4c0.4-0.6,0.8-1.2,1.1-1.9
		c0.4-0.9,0.9-1.8,1.5-2.7c0.3-0.4,0.7-0.6,1.2-0.6c0.4,0,0.8,0.1,1,0.4c0.2,0.3,0.3,0.7,0.2,1l-5.6,25.9c-0.1,0.6-0.2,1.1-0.2,1.7
		c0,0.7,0.2,1.4,0.6,2c0.4,0.5,1.1,0.8,1.8,0.8c1.8,0,3.4-1.8,4.7-5.3c0.3-0.4,0.7-0.6,1.1-0.6c0.3,0,0.5,0.1,0.7,0.3
		c0.2,0.3,0.3,0.6,0.3,0.9c0,0.4-0.1,0.8-0.3,1.2c-0.8,2.4-2.1,4.6-3.9,6.4c-1.5,1.5-3.5,2.4-5.7,2.4c-1.6,0.1-3.1-0.5-4.2-1.7
		c-1-1.3-1.5-2.9-1.4-4.5c0-0.9,0.1-1.8,0.3-2.6v-0.3c0-0.2,0-0.3-0.1-0.5c0-0.1-0.1-0.2-0.2-0.2c-0.2,0-0.4,0.2-0.5,0.4
		c-1.7,2.5-3.7,4.8-6,6.7c-2,1.7-4.6,2.6-7.3,2.6C1432.4,278.1,1429.7,277,1427.8,275z M1443.8,270.4c1.8-1.7,3.4-3.6,4.6-5.8
		c1.2-2,2.1-4.2,2.7-6.5c0.3-1.1,0.6-2.3,0.8-3.5c0.1-0.9,0.2-1.9,0.2-2.9c0.1-2-0.6-3.9-1.9-5.5c-1.2-1.4-3-2.1-4.9-2.1
		c-2.6,0-5.1,1.2-6.8,3.2c-2.1,2.3-3.6,5-4.6,8c-1,2.8-1.6,5.8-1.6,8.8c-0.1,2.2,0.4,4.4,1.6,6.3c1,1.4,2.6,2.2,4.3,2.2
		C1440.3,272.7,1442.3,271.8,1443.8,270.4L1443.8,270.4z"/>
	<path d="M1484.4,271.9c0-1.4,0.2-2.7,0.4-4.1l7.5-36c0.1-0.4,0.1-0.9,0.2-1.3c0.1-1-0.6-1.8-1.5-2c-0.2,0-0.8-0.2-1.7-0.3
		c-0.6-0.1-1.1-0.2-1.7-0.3c-0.3-0.1-0.5-0.4-0.5-0.7c0-0.5,0.3-0.9,0.7-1.1c0.6-0.3,1.2-0.5,1.8-0.7c3-0.6,6-1.1,9-1.4
		c1.2,0,1.7,0.4,1.7,1.3c0,0.3,0,0.5-0.1,0.8l-9,42.3c-0.1,0.5-0.2,1.1-0.2,1.7c-0.1,0.7,0.2,1.5,0.6,2.1c0.4,0.5,1,0.8,1.7,0.7
		c1.1,0,2.1-0.5,2.7-1.4c0.9-1.2,1.6-2.6,2.1-4.1c0.3-0.3,0.6-0.5,1.1-0.5c0.3,0,0.6,0.1,0.8,0.3c0.2,0.2,0.3,0.6,0.3,0.9
		c0,0.4-0.1,0.8-0.3,1.2c-0.7,2.4-2.1,4.6-3.9,6.4c-1.6,1.6-3.7,2.4-5.9,2.4C1486.3,278,1484.4,276,1484.4,271.9z"/>
</g>
</svg>
