<?xml version="1.0" encoding="utf-8"?>
<!-- Generator: Adobe Illustrator 25.0.0, SVG Export Plug-In . SVG Version: 6.00 Build 0)  -->
<svg version="1.1" id="Layer_1" xmlns="http://www.w3.org/2000/svg" xmlns:xlink="http://www.w3.org/1999/xlink" x="0px" y="0px"
	 viewBox="0 0 1191.9 493.7" style="enable-background:new 0 0 1191.9 493.7;" xml:space="preserve">
<style type="text/css">
	.st0{fill:none;}
	.st1{fill:#1B1B1B;}
	.st2{fill:#005C9C;}
	.st3{fill:#1C1C1C;}
	.st4{fill:#FF470F;}
	.st5{fill:#008200;}
	.st6{fill:#E60003;}
	.st7{fill:#FFB300;}
	.st8{fill:#FF95C1;}
</style>
<g id="Frame">
	<rect x="-400.9" y="-748" class="st0" width="2004.8" height="2004.8"/>
</g>
<g id="Yellow">
	<path class="st1" d="M162.1,397.8l-25.8,0.2c-18.1,0.3-31.3,0.6-39.6,1.2c-7.4,0.7-12.8,1-16,1c-7.8,0-14-2-18.7-6
		c-4.5-4-6.7-8.7-6.7-14.2c0-3.6,0.8-6.4,2.5-8.5s5.7-5.3,12.1-9.6c3.7-2.6,6.3-6.6,7.7-12c1.4-5.4,2.9-17.1,4.6-35.1
		c2.4-28,3.7-62.4,3.7-103.3c0-15-1-25-3-29.9s-6.6-9-13.9-12.2c-8.5-3.6-12.7-8.9-12.7-15.8c0-5.6,2.5-10.3,7.6-13.8
		s11.6-5.4,19.5-5.4c4.3,0,9.9,0.2,16.7,0.6c11.3,0.5,23.5,0.8,36.5,0.8c9.6,0,28.5-0.4,56.8-1.2c8.8-0.2,16.8-0.4,24-0.4
		c17.1,0,30.8,1.4,41.3,4.1c10,2.5,19.3,7.3,27.2,14c12.6,10.7,18.8,24.9,18.8,42.7c0,8.9-1.9,17.7-5.6,25.9
		c-3.3,7.8-8.4,14.7-15,20.1c-4.5,3.6-6.7,6.9-6.7,9.8c0,3.2,2.7,5.9,8.1,8.1c10.5,4.2,20.1,11.4,28.7,21.3
		c8.8,10.4,13.3,23.4,13.3,39.1c0,18.5-6.7,35.3-20.2,50.6C289.5,390,263.1,400,228.2,400c-4.7,0-16.4-0.3-35-1
		C176.3,398.3,166,398,162.1,397.8z M175.4,189.1v39.6c0,6.3,0.8,10.7,2.4,13.3s4.4,3.8,8.4,3.8c9.5,0,16.5-2.9,21-8.8
		c4.5-5.8,6.8-15,6.7-27.4c0-12.1-2.3-21.4-6.9-28c-4.6-6.6-11.2-9.9-19.6-9.9c-4.5,0-7.6,1.2-9.3,3.8S175.4,182.6,175.4,189.1
		L175.4,189.1z M175.4,299.9v18.3c0,16.8,1.2,28,3.7,33.5s7.4,8.3,14.8,8.3c19.5,0,29.2-11.4,29.2-34.2c0-28.5-10.9-42.7-32.7-42.7
		c-5.6,0-9.5,1.2-11.7,3.7S175.4,293.5,175.4,299.9L175.4,299.9z"/>
	<path class="st1" d="M362.3,338.3c8.5-0.1,16.6,3.2,22.7,9.1c6.5,6.1,9.8,14.1,9.8,23.8c0.2,8.7-3.4,17.1-9.8,23
		c-12.7,12.1-32.7,12.1-45.4,0c-6.4-6-10-14.6-9.8-23.4c0-9.5,3.3-17.3,9.8-23.4C345.7,341.6,353.8,338.3,362.3,338.3z"/>
	<path class="st1" d="M781.1,338.3c8.5-0.1,16.6,3.2,22.7,9.1c6.5,6.1,9.8,14.1,9.8,23.8c0.2,8.7-3.4,17.1-9.8,23
		c-12.7,12.1-32.7,12.1-45.4,0c-6.4-6.1-10-14.6-9.8-23.4c0-9.5,3.3-17.3,9.8-23.4C764.6,341.6,772.7,338.3,781.1,338.3z"/>
	<path class="st1" d="M1143.4,336.2c8.5-0.1,16.6,3.2,22.7,9.1c6.5,6.1,9.8,14.1,9.8,23.8c0.2,8.7-3.4,17.1-9.8,23
		c-12.7,12.1-32.7,12.1-45.4,0c-6.4-6-10-14.6-9.8-23.4c0-9.5,3.3-17.3,9.8-23.4C1126.8,339.4,1134.9,336.1,1143.4,336.2z"/>
	<path class="st1" d="M666.4,265.1l36.4,77.9c3.5,7.2,6.3,11.9,8.7,14.1c2.3,2.2,5.8,3.8,10.6,4.5c9.2,1.4,13.8,6.1,13.8,14
		c0,9.3-5.6,16.1-16.9,20.2c-11.3,4.1-29.8,6.2-55.4,6.2c-29,0-50.5-1.2-64.5-3.7c-6.4-1.2-11.5-3.5-15.3-7
		c-3.7-3.2-5.7-7.9-5.7-12.8c0-3.8,1-6.8,3-8.9c2-2.1,5.7-4.1,11-5.8c6-2.1,9-5.5,9-10.4c0-8.6-5.2-13.7-15.6-15.2
		c-11.2-1.5-26.9-2.3-47.1-2.3c-17.1,0-27.3,1-30.6,3.1c-2,1.3-3.8,3.6-5.4,6.9c-1.5,3-2.2,6.3-2.3,9.6c0,2.8,0.5,4.6,1.6,5.5
		s4.6,2.2,10.7,4.1c7.8,2.3,11.7,6.9,11.7,13.8c0,15.3-18.3,22.9-54.8,22.9c-20.8,0-36-1.4-45.8-4.2c-9-2.7-13.5-8.6-13.5-17.7
		c0-4,1-7.1,3-9.2s5.6-4.2,10.7-6c8.3-2.9,14.6-7.1,19-12.4s10.4-16.7,18.4-34.1l27.1-59.4c10-21.8,16.7-38.1,20.1-49
		c3.3-10.3,5.1-21,5.3-31.8c0.1-11,0.8-18.7,2-23s3.9-8.5,8.2-12.6c8.9-9,20.1-13.5,33.9-13.5c12.9,0,25.3,5.1,37.1,15.2
		C611.3,158,635.1,198.3,666.4,265.1z M532.5,289.4h37.7c6.9,0,10.4-1.5,10.4-4.6c0-4.2-4.8-14.6-14.4-31.2
		c-4.4-7.6-7.7-12.6-10-15.2c-2.3-2.6-4.8-3.8-7.3-3.8c-4.6,0-8.5,4.3-11.5,12.9c-0.5,1.2-2.4,5.7-5.6,13.7
		c-5.4,13.1-8.1,20.9-8.1,23.5C523.7,287.8,526.6,289.4,532.5,289.4z"/>
	<path class="st1" d="M907,398h-13.8c-8.1,0-17.1,0.4-27.1,1.2c-6.3,0.5-10.6,0.8-13.1,0.8c-8.6,0-15.6-2-21-6s-8.1-9.2-8.1-15.6
		c0-4.5,1.2-8,3.6-10.5c2.4-2.5,6.3-4.5,11.6-6.1c5.1-1.3,8.6-3.4,10.4-6.2c1.8-2.9,3.2-8.5,4.2-16.8c1-9.6,1.9-28.3,2.8-56.2
		c0.8-27.8,1.3-55.5,1.2-82.9c0-10.8-0.8-17.9-2.5-21.5c-1.7-3.6-5.6-6.5-11.7-8.7c-8.9-3.3-13.3-9-13.3-17.1c0-6.3,3-11.2,9.1-14.7
		c6.1-3.5,14.6-5.3,25.5-5.3c3.6,0,7.8,0.1,12.7,0.2c10.8,0.4,18.6,0.6,23.5,0.6c18.3,0,39-0.6,62.1-1.7c4.9-0.2,11-0.4,18.3-0.4
		c29.4,0,52.6,3.3,69.6,10c25.4,10,44.5,26.8,57.3,50.4c11.4,20.8,17.1,45.5,17.1,74.3c0,14.8-2.2,29.4-6.3,43.6
		c-4.2,14.5-9.9,27.1-17.1,37.8c-14.9,21.5-35.4,36.7-61.6,45.4c-15.9,5.2-32.5,7.8-49.2,7.7l-23.3-0.8l-20-0.6
		C932.5,398.2,918.8,398,907,398z M947.4,189.5v148.9c0,8.1,1.7,13.8,5.2,17.2c3.5,3.4,9.2,5.1,17.3,5.1c37.4,0,56.2-28.5,56.2-85.4
		c0-31.4-4.4-55.8-13.1-73.1c-9.6-19.1-25.9-28.7-48.9-28.7c-6.2,0-10.5,1.2-13,3.7C948.7,179.6,947.4,183.7,947.4,189.5
		L947.4,189.5z"/>
	<path class="st1" d="M56.2,384c-8.7,0-15.7-2.3-21-6.8c-5.3-4.7-8-10.4-8-17c0-4.4,1.1-8,3.3-10.7c1.9-2.4,6-5.7,12.9-10.3
		c3-2.1,5-5.3,6.2-10c1.4-5.2,2.9-16.9,4.5-34.5c2.4-27.7,3.6-62.4,3.6-103c0-18-1.5-25.5-2.7-28.6c-1.6-4-5.7-7.5-12.1-10.3
		c-12.3-5.2-14.8-13.2-14.8-19.1c0-6.8,3.1-12.5,9.1-16.8c5.7-4,12.9-6,21.6-6c4.4,0,10.1,0.2,16.9,0.6c11.1,0.5,23.4,0.8,36.3,0.8
		c9.5,0,28.6-0.4,56.7-1.2c8.9-0.2,17-0.4,24.1-0.4c17.3,0,31.5,1.4,42.2,4.2c10.5,2.7,20.3,7.7,28.6,14.7
		c13.3,11.3,20.1,26.6,20.1,45.4c0,9.4-2,18.7-5.9,27.3c-3.5,8.3-9,15.7-16.1,21.5c-4.8,3.9-5.4,6.2-5.4,7c0,1.5,2.1,3.2,5.8,4.7
		c11,4.4,21.1,12,30,22.3c9.4,11,14.1,24.9,14.1,41.4c0,19.3-7.1,37.1-21.1,53c-18.5,20.8-46,31.4-81.8,31.4c-4.8,0-16.3-0.3-35.1-1
		c-16.8-0.7-27.2-1.1-31.1-1.2l-25.7,0.2c-17.9,0.3-31.2,0.6-39.4,1.2C64.9,383.7,59.6,384,56.2,384z M165.9,266.8
		c-4.5,0-7.6,0.8-9.1,2.5c-0.9,1-2.3,3.7-2.3,10.9v18.3c0,20.2,1.8,28.6,3.3,32c1.2,2.6,3.6,6.1,11.5,6.1c17.5,0,25.7-9.7,25.7-30.7
		C195,279.6,185.5,266.8,165.9,266.8L165.9,266.8z M162.8,155.7c-3.2,0-5.4,0.7-6.4,2.2c-0.7,1.1-2,4-2,11.5V209
		c0,7.3,1.2,10.3,1.9,11.4c0.6,0.9,1.8,2.2,5.3,2.2c8.4,0,14.3-2.4,18.1-7.3c4-5.2,6-13.7,6-25.2c0-11.2-2.1-20-6.3-25.9
		C175.5,158.4,170.1,155.7,162.8,155.7L162.8,155.7z"/>
	<path class="st2" d="M137.6,378.1l-25.8,0.2c-18.1,0.3-31.3,0.6-39.6,1.2c-7.4,0.7-12.8,1-16,1c-7.8,0-14-2-18.7-6
		c-4.5-4-6.7-8.7-6.7-14.2c0-3.6,0.8-6.4,2.5-8.5c1.7-2.1,5.7-5.3,12.1-9.6c3.7-2.6,6.3-6.6,7.7-12c1.4-5.4,2.9-17.1,4.6-35.1
		c2.4-28,3.6-62.4,3.7-103.3c0-15-1-25-3-29.9s-6.6-9-13.9-12.2c-8.5-3.6-12.7-8.8-12.7-15.8c0-5.6,2.5-10.3,7.6-13.8
		c5.1-3.6,11.6-5.4,19.5-5.4c4.4,0,9.9,0.2,16.7,0.6c11.3,0.5,23.5,0.8,36.6,0.8c9.6,0,28.5-0.4,56.7-1.2c8.9-0.3,16.9-0.4,24-0.4
		c17.1,0,30.8,1.4,41.3,4.1c10,2.5,19.3,7.3,27.2,13.9c12.6,10.7,18.8,24.9,18.8,42.7c0,8.9-1.9,17.7-5.5,25.8
		c-3.3,7.8-8.4,14.7-15,20.1c-4.5,3.6-6.7,6.9-6.7,9.8c0,3.2,2.7,5.9,8.1,8.1c10.5,4.2,20.1,11.3,28.7,21.3
		c8.8,10.4,13.3,23.4,13.3,39.1c0,18.5-6.7,35.3-20.2,50.6c-17.8,20.1-44.2,30.2-79.1,30.2c-4.7,0-16.4-0.3-35-1
		C151.8,378.6,141.4,378.2,137.6,378.1z M150.9,169.4V209c0,6.3,0.8,10.7,2.4,13.3s4.4,3.8,8.4,3.8c9.5,0,16.5-2.9,21-8.8
		c4.5-5.8,6.7-15,6.7-27.4c0-12.1-2.3-21.4-6.9-28s-11.2-9.9-19.6-9.9c-4.5,0-7.6,1.2-9.3,3.8C151.7,158.3,150.9,162.9,150.9,169.4
		L150.9,169.4z M150.9,280.2v18.3c0,16.8,1.2,28,3.7,33.5c2.4,5.5,7.4,8.3,14.8,8.3c19.5,0,29.2-11.4,29.2-34.2
		c0-28.5-10.9-42.7-32.7-42.7c-5.6,0-9.6,1.2-11.7,3.7C152,269.3,150.9,273.8,150.9,280.2L150.9,280.2z"/>
	<path class="st3" d="M337.8,387.1c-9.4,0.1-18.4-3.5-25.2-10.1c-7.1-6.7-11.1-16.2-10.9-26c0-10.5,3.7-19.3,10.9-26
		c6.8-6.4,15.8-10,25.1-10c9.4-0.1,18.5,3.5,25.2,10.1c7.2,6.8,10.9,15.7,10.9,26.4c0.2,9.7-3.8,18.9-10.9,25.5
		C356.2,383.5,347.2,387.2,337.8,387.1z"/>
	<path class="st4" d="M337.8,318.6c8.5-0.1,16.6,3.2,22.7,9.1c6.5,6.2,9.8,14.1,9.8,23.8c0.2,8.7-3.4,17.1-9.8,23
		c-12.7,12.1-32.7,12.1-45.4,0c-6.4-6-10-14.6-9.8-23.4c0-9.5,3.3-17.3,9.8-23.4C321.2,321.8,329.3,318.5,337.8,318.6z"/>
	<path class="st1" d="M756.7,387.1c-9.4,0.1-18.4-3.5-25.2-10.1c-7.1-6.7-11.1-16.2-10.9-26c0-10.5,3.7-19.3,10.9-26
		c6.8-6.4,15.8-10,25.1-10c9.4-0.1,18.5,3.5,25.2,10.1c7.2,6.8,10.9,15.7,10.9,26.4c0.2,9.7-3.8,18.9-10.9,25.5
		C775.1,383.5,766.1,387.2,756.7,387.1z"/>
	<path class="st5" d="M756.7,319.1c8.5-0.1,16.6,3.2,22.7,9.1c6.5,6.1,9.8,14.1,9.8,23.8c0.2,8.7-3.4,17.1-9.8,23
		c-12.7,12.1-32.7,12.1-45.4,0c-6.4-6.1-10-14.6-9.8-23.4c0-9.5,3.3-17.3,9.8-23.4C740.1,322.4,748.2,319.1,756.7,319.1z"/>
	<path class="st1" d="M1118.9,387.1c-9.4,0.1-18.4-3.5-25.2-10.1c-7.2-6.7-11.1-16.2-10.9-26c0-10.5,3.7-19.3,10.9-26
		c6.8-6.4,15.8-10,25.1-10c9.4-0.1,18.5,3.5,25.2,10.1c7.2,6.8,10.9,15.7,10.9,26.4c0.2,9.7-3.8,19-10.9,25.6
		C1137.3,383.6,1128.3,387.2,1118.9,387.1z"/>
	<path class="st6" d="M1118.9,319.1c8.5-0.1,16.6,3.2,22.7,9.1c6.5,6.1,9.8,14.1,9.8,23.8c0.2,8.7-3.4,17.1-9.8,23
		c-12.7,12.1-32.7,12.1-45.4,0c-6.4-6-10-14.6-9.8-23.4c0-9.5,3.3-17.3,9.8-23.4C1102.3,322.4,1110.4,319.1,1118.9,319.1z"/>
	<path class="st1" d="M639,385.9c-29,0-50.9-1.2-65.1-3.7c-7.1-1.3-12.9-3.9-17.1-7.9c-4.4-3.9-6.9-9.5-6.8-15.4
		c0-4.8,1.3-8.6,4-11.4c2.4-2.6,6.5-4.8,12.5-6.8c5.8-2,6.6-4.8,6.6-7c0-4.6-1.4-10-12.5-11.6c-10.9-1.5-26.6-2.3-46.6-2.3
		c-22.2,0-27.5,1.8-28.7,2.5c-1.4,0.9-2.8,2.7-4,5.4c-1.2,2.5-1.9,5.3-2,8.1c-0.1,0.9,0.1,1.8,0.3,2.7c0.5,0.3,2.5,1.3,9.5,3.5
		c11.8,3.5,14.2,11.3,14.2,17.3c0,9.2-5.4,16.1-15.9,20.5c-9.7,4-23.6,6-42.5,6c-21.3,0-36.6-1.4-46.8-4.4
		c-10.5-3.2-16.1-10.5-16.1-21.2c0-4.9,1.3-8.8,3.9-11.7c2.4-2.7,6.4-4.9,12.2-6.9c7.7-2.7,13.5-6.5,17.3-11.3
		c4.1-5,10.1-16.3,17.9-33.4l27.1-59.5c9.9-21.5,16.6-37.9,19.9-48.5c3.2-10,4.9-20.3,5.1-30.8c0.1-11.5,0.8-19.3,2.2-23.9
		c1.4-4.9,4.5-9.7,9.1-14.2c9.5-9.6,21.7-14.5,36.4-14.5c13.8,0,27,5.4,39.5,16.1c17,14.3,40.7,54.3,72.5,122.2l36.3,77.9
		c4,8.4,6.5,11.8,7.9,13.1c1.8,1.7,4.7,2.9,8.7,3.6C712,340.5,715,349.2,715,356c0,11-6.5,18.9-19.3,23.6
		C683.9,383.8,665.3,385.9,639,385.9z M524.4,218.4c-3.8,0-6.8,6.6-8.2,10.5l-0.1,0.1v0.1c-0.3,0.8-1.6,3.8-5.5,13.5
		c-7.3,17.6-7.8,21.4-7.8,22.1c0,0.1,0,0.2,0,0.2c0,0,0.9,1,5.2,1h37.7c5,0,6.5-0.8,6.8-1.1c-0.1-1.8-1.6-8.1-13.9-29.3
		c-4.2-7.3-7.4-12.2-9.6-14.6C527.4,219.2,525.9,218.4,524.4,218.4z"/>
	<path class="st7" d="M641.9,246l36.4,77.9c3.5,7.2,6.3,11.9,8.7,14.1s5.8,3.8,10.6,4.5c9.2,1.4,13.8,6.1,13.8,14
		c0,9.3-5.6,16.1-16.9,20.2c-11.3,4.1-29.8,6.2-55.4,6.2c-29,0-50.5-1.2-64.5-3.7c-6.4-1.2-11.5-3.5-15.3-7
		c-3.7-3.2-5.7-7.9-5.7-12.8c0-3.8,1-6.8,3-8.9s5.7-4.1,11.1-5.9c6-2.1,9-5.5,9-10.4c0-8.6-5.2-13.7-15.6-15.2
		c-11.2-1.5-26.9-2.3-47.1-2.3c-17.1,0-27.3,1-30.6,3.1c-2,1.3-3.8,3.6-5.4,6.9c-1.5,3-2.2,6.3-2.3,9.6c0,2.8,0.5,4.6,1.6,5.5
		c1.1,0.8,4.6,2.2,10.7,4.1c7.8,2.3,11.7,6.9,11.7,13.8c0,15.3-18.3,22.9-54.8,22.9c-20.8,0-36-1.4-45.8-4.2
		c-9-2.7-13.5-8.6-13.5-17.7c0-4,1-7.1,3-9.2s5.6-4.2,10.7-6c8.3-2.9,14.6-7.1,18.9-12.4c4.3-5.3,10.4-16.7,18.4-34.2l27.1-59.4
		c10-21.8,16.7-38.1,20.1-49c3.3-10.3,5.1-21,5.3-31.8c0.1-11,0.8-18.7,2-23c1.2-4.3,3.9-8.5,8.2-12.6c8.9-9,20.1-13.5,33.9-13.5
		c13,0,25.3,5.1,37.1,15.2C586.8,138.8,610.6,179.1,641.9,246z M508,270.2h37.7c6.9,0,10.4-1.5,10.4-4.6c0-4.2-4.8-14.6-14.4-31.2
		c-4.4-7.6-7.7-12.6-10-15.2c-2.3-2.6-4.8-3.8-7.3-3.8c-4.6,0-8.5,4.3-11.5,12.9c-0.5,1.1-2.4,5.7-5.6,13.7
		c-5.4,13.1-8.1,20.9-8.1,23.5C499.2,268.6,502.1,270.2,508,270.2L508,270.2z"/>
	<path class="st1" d="M943.4,383.2l-20-0.6c-15.4-0.5-29.1-0.8-40.9-0.8h-13.8c-8,0-17,0.4-26.8,1.2c-6.4,0.5-10.8,0.8-13.3,0.8
		c-9.3,0-17.1-2.2-23.1-6.7c-6.3-4.7-9.5-10.9-9.5-18.5c0-5.4,1.5-9.8,4.5-13c2.8-3,7.2-5.3,13.3-7h0.1c4.2-1,6.9-2.6,8.2-4.7
		c1-1.7,2.5-5.7,3.7-15.4c1-9.4,1.9-28.2,2.8-55.8s1.2-55.5,1.2-82.8c0-12.7-1.2-17.9-2.2-20c-1.2-2.7-4.5-4.9-9.7-6.8
		c-13-4.9-15.7-13.8-15.7-20.5c0-7.5,3.8-13.7,10.9-17.8c6.6-3.8,15.8-5.8,27.3-5.8c3.6,0,7.8,0.1,12.8,0.2
		c10.7,0.4,18.6,0.6,23.4,0.6c18.2,0,39-0.6,62-1.7c4.9-0.3,11.2-0.4,18.5-0.4c29.7,0,53.5,3.5,70.9,10.2c26.1,10.3,46,27.8,59.2,52
		c11.6,21.2,17.6,46.8,17.6,76c0,15.1-2.2,30.1-6.5,44.6c-4.3,14.8-10.2,27.9-17.6,38.8c-15.3,22.1-36.6,37.9-63.4,46.8
		c-16.3,5.3-33.3,8-50.4,7.9L943.4,383.2z M939.7,157.4c-5.1,0-8.7,0.9-10.5,2.6s-2.7,5.1-2.7,9.7v148.9c0,7,1.4,12,4.1,14.7
		s7.7,4.1,14.8,4.1c35.4,0,52.6-26.8,52.6-81.8c0-30.7-4.3-54.8-12.7-71.5C976.3,166.1,961.3,157.4,939.7,157.4z"/>
	<path class="st8" d="M882.5,378.9h-13.8c-8.1,0-17.1,0.4-27.1,1.2c-6.3,0.5-10.6,0.8-13.1,0.8c-8.6,0-15.6-2-21-6
		s-8.1-9.2-8.1-15.6c0-4.5,1.2-8,3.6-10.5c2.4-2.5,6.3-4.5,11.6-6.1c5.1-1.3,8.6-3.4,10.4-6.2s3.2-8.5,4.2-16.8
		c1-9.6,2-28.3,2.8-56.2c0.8-27.8,1.3-55.5,1.2-82.9c0-10.8-0.8-17.9-2.5-21.5c-1.7-3.6-5.6-6.5-11.7-8.7c-8.9-3.3-13.3-9-13.3-17.1
		c0-6.3,3-11.2,9.1-14.7c6.1-3.5,14.6-5.3,25.5-5.3c3.6,0,7.8,0.1,12.7,0.2c10.8,0.4,18.6,0.6,23.5,0.6c18.3,0,39.1-0.6,62.1-1.7
		c4.9-0.2,11-0.4,18.3-0.4c29.3,0,52.5,3.3,69.6,10c25.4,10,44.5,26.8,57.3,50.4c11.4,20.8,17.1,45.5,17.1,74.3
		c0,14.8-2.2,29.4-6.3,43.6c-4.2,14.6-9.9,27.2-17.1,37.8c-14.9,21.5-35.4,36.7-61.6,45.4c-15.9,5.2-32.5,7.8-49.2,7.7l-23.3-0.8
		l-20-0.6C908,379.1,894.3,378.9,882.5,378.9z M922.9,170.3v148.9c0,8.1,1.7,13.8,5.2,17.2s9.2,5.1,17.3,5.1
		c37.4,0,56.2-28.5,56.2-85.4c0-31.4-4.4-55.8-13.1-73.1c-9.6-19.1-25.9-28.7-48.9-28.7c-6.2,0-10.5,1.2-13,3.7
		S922.9,164.6,922.9,170.3z"/>
</g>
</svg>
