<svg xmlns="http://www.w3.org/2000/svg" viewBox="0 0 2004.8 2004.8"><defs><style>.cls-1{fill:none;}.cls-2{fill:#1b1b1b;}.cls-3{fill:#ffb300;}.cls-4{fill:#1c1c1c;}</style></defs><g id="Frame"><rect class="cls-1" width="2004.8" height="2004.8"/></g><g id="Yellow"><path class="cls-2" d="M563,1145.85l-25.77.19q-27.14.39-39.63,1.16-11.16,1-16,1-11.73,0-18.66-6-6.74-6-6.73-14.24,0-5.39,2.5-8.46t12.12-9.62q5.58-3.84,7.69-12t4.62-35.11q3.66-41.94,3.66-103.3,0-22.51-3-29.92t-13.94-12.21q-12.71-5.39-12.7-15.77,0-8.47,7.6-13.85t19.53-5.39q6.52,0,16.73.58,16.92.76,36.55.77,14.43,0,56.75-1.16,13.27-.37,24-.38,25.59,0,41.27,4.13a68.37,68.37,0,0,1,27.22,14q18.85,16,18.85,42.7a63.31,63.31,0,0,1-5.58,25.88,52,52,0,0,1-15,20.1q-6.74,5.39-6.74,9.81,0,4.81,8.08,8.08,15.78,6.35,28.67,21.35,13.27,15.59,13.27,39.05,0,27.7-20.2,50.6-26.75,30.2-79.06,30.2-7.12,0-35-1Q568.74,1146,563,1145.85Zm13.28-208.72v39.63q0,9.43,2.4,13.27t8.37,3.85q14.24,0,21-8.75t6.73-27.41q0-18.09-6.93-28t-19.62-9.91c-4.49,0-7.59,1.25-9.33,3.75S576.24,930.59,576.24,937.13Zm0,110.81v18.27q0,25.2,3.65,33.47T594.7,1108q29.25,0,29.24-34.25,0-42.7-32.7-42.7-8.46,0-11.73,3.65T576.24,1047.94Z"/><path class="cls-2" d="M763.14,1086.31a32,32,0,0,1,22.7,9.08q9.76,9.21,9.76,23.8a30.57,30.57,0,0,1-9.76,23,32.91,32.91,0,0,1-45.4,0,31,31,0,0,1-9.76-23.39q0-14.3,9.76-23.38A32.8,32.8,0,0,1,763.14,1086.31Z"/><path class="cls-2" d="M1182,1086.31a32,32,0,0,1,22.7,9.08q9.76,9.21,9.76,23.8a30.57,30.57,0,0,1-9.76,23,32.91,32.91,0,0,1-45.4,0,31.06,31.06,0,0,1-9.77-23.39q0-14.3,9.77-23.38A32.79,32.79,0,0,1,1182,1086.31Z"/><path class="cls-2" d="M1544.24,1084.15a32,32,0,0,1,22.7,9.08q9.76,9.21,9.77,23.79a30.6,30.6,0,0,1-9.77,23,32.9,32.9,0,0,1-45.39,0,31,31,0,0,1-9.77-23.39q0-14.31,9.77-23.38A32.76,32.76,0,0,1,1544.24,1084.15Z"/><path class="cls-2" d="M1067.28,1013.12l36.36,77.91q5.19,10.77,8.66,14.14t10.58,4.52q13.84,2.11,13.85,14,0,14-16.93,20.2t-55.4,6.15q-43.49,0-64.45-3.65-9.62-1.74-15.29-7a16.86,16.86,0,0,1-5.67-12.79q0-5.77,3-8.95T993,1111.8q9-3.08,9-10.38,0-12.89-15.58-15.2-16.74-2.31-47.13-2.31-25.59,0-30.59,3.08-3.07,1.92-5.38,6.92a22.93,22.93,0,0,0-2.31,9.62q0,4.23,1.63,5.48t10.68,4.14q11.73,3.46,11.73,13.85,0,22.89-54.82,22.89-31.17,0-45.78-4.23-13.47-4-13.47-17.7,0-6,3-9.23t10.68-6q12.49-4.41,18.95-12.4T862,1066.21l27.12-59.44q15-32.7,20.1-49A110.64,110.64,0,0,0,914.54,926q.19-16.54,2-23t8.18-12.6Q938,876.92,958.6,876.92q19.42,0,37.12,15.2Q1020.35,912.9,1067.28,1013.12ZM933.4,1037.36h37.7q10.39,0,10.39-4.62,0-6.35-14.43-31.16-6.54-11.36-10-15.2c-2.31-2.56-4.75-3.85-7.31-3.85q-6.93,0-11.55,12.89-.76,1.74-5.57,13.66-8.08,19.62-8.08,23.47Q924.55,1037.37,933.4,1037.36Z"/><path class="cls-2" d="M1307.9,1146h-13.85q-12.12,0-27.12,1.16-9.43.77-13.08.77-12.9,0-21-6t-8.08-15.58q0-6.72,3.56-10.48t11.64-6.06q7.7-1.92,10.39-6.25t4.23-16.83q1.53-14.43,2.79-56.18t1.25-82.91q0-16.15-2.5-21.54t-11.74-8.66q-13.28-5-13.27-17.12,0-9.42,9.14-14.71t25.49-5.3c3.58,0,7.82.07,12.69.2q16.15.57,23.47.57,27.51,0,62.13-1.73,7.32-.37,18.28-.38,44.06,0,69.64,10,38.09,15,57.32,50.4,17.12,31.17,17.12,74.26a155.16,155.16,0,0,1-6.35,43.57q-6.35,21.82-17.12,37.8-22.31,32.31-61.55,45.4a154.77,154.77,0,0,1-49.25,7.69l-23.28-.77-20-.58Q1325.6,1146,1307.9,1146Zm40.4-208.52v148.89q0,12.12,5.19,17.22t17.32,5.1q56.16,0,56.17-85.42,0-47.12-13.08-73.1-14.43-28.65-48.86-28.66-9.24,0-13,3.66T1348.3,937.52Z"/><path class="cls-2" d="M457.08,1132c-8.67,0-15.73-2.3-21-6.83-5.31-4.7-8-10.4-8-17,0-4.42,1.12-8,3.31-10.73,1.94-2.38,6-5.66,12.89-10.33,3-2.06,5-5.32,6.23-10,1.36-5.24,2.88-16.86,4.52-34.54,2.42-27.73,3.64-62.38,3.64-103,0-18-1.48-25.48-2.72-28.57-1.62-4-5.67-7.46-12.06-10.26-12.26-5.2-14.84-13.24-14.84-19.07,0-6.85,3.06-12.5,9.11-16.78,5.66-4,12.93-6,21.6-6,4.42,0,10.12.2,16.94.58,11.11.51,23.35.77,36.35.77,9.54,0,28.6-.39,56.65-1.16,8.89-.25,17-.38,24.14-.38,17.28,0,31.47,1.43,42.18,4.25a72.17,72.17,0,0,1,28.63,14.69c13.35,11.3,20.12,26.6,20.12,45.44a67.25,67.25,0,0,1-5.88,27.33,55.9,55.9,0,0,1-16.06,21.46c-4.85,3.88-5.37,6.18-5.37,7,0,1.51,2.12,3.24,5.83,4.74,11,4.43,21.11,12,30,22.35,9.39,11,14.14,24.94,14.14,41.39,0,19.28-7.1,37.1-21.1,53-18.46,20.85-46,31.42-81.75,31.42-4.81,0-16.31-.32-35.14-1q-25.23-1-31.08-1.15l-25.71.19c-17.92.26-31.19.64-39.43,1.15C465.73,1131.67,460.41,1132,457.08,1132Zm109.65-117.15c-4.48,0-7.62.85-9.06,2.46-.88,1-2.35,3.7-2.35,10.87v18.28c0,20.2,1.82,28.56,3.35,32,1.16,2.64,3.62,6.14,11.52,6.14,17.5,0,25.65-9.74,25.65-30.65C595.84,1027.63,586.32,1014.84,566.73,1014.84Zm-3.08-111.19c-3.22,0-5.36.74-6.37,2.2-.73,1.06-2,4-2,11.52V957c0,7.31,1.16,10.26,1.86,11.36.58.93,1.76,2.16,5.32,2.16,8.39,0,14.31-2.4,18.12-7.35,4-5.16,6-13.65,6-25.22,0-11.24-2.12-20-6.28-25.93C576.39,906.39,570.94,903.65,563.65,903.65Z"/><path class="cls-3" d="M538.45,1126.09l-25.77.19q-27.13.39-39.63,1.15-11.16,1-16,1-11.73,0-18.66-6-6.74-6-6.73-14.23,0-5.39,2.5-8.47t12.12-9.61q5.58-3.86,7.69-12t4.62-35.11q3.64-41.93,3.66-103.3,0-22.5-3-29.91t-13.94-12.21q-12.71-5.38-12.7-15.78,0-8.46,7.6-13.85t19.52-5.39q6.54,0,16.74.58,16.92.78,36.55.77,14.43,0,56.75-1.15,13.28-.39,24-.39,25.59,0,41.27,4.14a68.35,68.35,0,0,1,27.22,13.94q18.84,16,18.85,42.71A63.23,63.23,0,0,1,675.61,949a52.14,52.14,0,0,1-15,20.11q-6.75,5.39-6.74,9.81,0,4.8,8.08,8.08,15.78,6.35,28.66,21.35,13.27,15.58,13.28,39.05,0,27.71-20.2,50.59-26.75,30.21-79.06,30.2-7.12,0-35-1Q544.23,1126.28,538.45,1126.09Zm13.28-208.72V957c0,6.28.79,10.71,2.4,13.27s4.39,3.85,8.37,3.85q14.24,0,21-8.75T590.2,938q0-18.08-6.93-28t-19.62-9.9q-6.74,0-9.33,3.75T551.73,917.37Zm0,110.8v18.28q0,25.2,3.65,33.47t14.81,8.27q29.23,0,29.24-34.24,0-42.71-32.7-42.71-8.46,0-11.73,3.66C552.81,1017.34,551.73,1021.76,551.73,1028.17Z"/><path class="cls-4" d="M738.63,1135.07A35.66,35.66,0,0,1,713.46,1125a34.68,34.68,0,0,1-10.89-26c0-10.53,3.67-19.29,10.91-26a36.44,36.44,0,0,1,25.11-10,35.66,35.66,0,0,1,25.2,10.06c7.23,6.82,10.9,15.71,10.9,26.41A34.15,34.15,0,0,1,763.81,1125,35.66,35.66,0,0,1,738.63,1135.07Z"/><path class="cls-3" d="M738.63,1066.55a32,32,0,0,1,22.7,9.07q9.76,9.23,9.76,23.8a30.55,30.55,0,0,1-9.76,23,32.91,32.91,0,0,1-45.4,0,31,31,0,0,1-9.77-23.38q0-14.31,9.77-23.39A32.78,32.78,0,0,1,738.63,1066.55Z"/><path class="cls-2" d="M1157.52,1135.07a35.66,35.66,0,0,1-25.17-10.06,34.68,34.68,0,0,1-10.89-26c0-10.53,3.67-19.29,10.91-26a36.44,36.44,0,0,1,25.11-10,35.66,35.66,0,0,1,25.2,10.06c7.23,6.82,10.89,15.71,10.89,26.41A34.15,34.15,0,0,1,1182.7,1125,35.65,35.65,0,0,1,1157.52,1135.07Z"/><path class="cls-3" d="M1157.52,1066.55a32,32,0,0,1,22.69,9.07q9.76,9.23,9.77,23.8a30.56,30.56,0,0,1-9.77,23,32.9,32.9,0,0,1-45.39,0,31,31,0,0,1-9.77-23.38q0-14.31,9.77-23.39A32.78,32.78,0,0,1,1157.52,1066.55Z"/><path class="cls-2" d="M1519.73,1135.07a35.63,35.63,0,0,1-25.16-10.06,34.65,34.65,0,0,1-10.9-26c0-10.53,3.68-19.29,10.92-26a36.41,36.41,0,0,1,25.1-10,35.64,35.64,0,0,1,25.2,10.06c7.23,6.82,10.9,15.71,10.9,26.41a34.18,34.18,0,0,1-10.87,25.57A35.67,35.67,0,0,1,1519.73,1135.07Z"/><path class="cls-3" d="M1519.73,1066.55a32,32,0,0,1,22.7,9.07q9.77,9.23,9.77,23.8a30.56,30.56,0,0,1-9.77,23,32.91,32.91,0,0,1-45.4,0,31,31,0,0,1-9.76-23.38q0-14.31,9.76-23.39A32.79,32.79,0,0,1,1519.73,1066.55Z"/><path class="cls-2" d="M1039.89,1133.91c-29,0-50.93-1.24-65.06-3.71-7.1-1.27-12.86-3.94-17.13-7.93a20.39,20.39,0,0,1-6.82-15.42c0-4.78,1.33-8.61,4-11.41,2.42-2.57,6.52-4.8,12.54-6.81,5.83-2,6.59-4.77,6.59-7,0-4.56-1.43-10-12.52-11.64-10.91-1.51-26.6-2.27-46.6-2.27-22.17,0-27.46,1.78-28.71,2.54-1.41.89-2.77,2.7-4,5.37a19.58,19.58,0,0,0-2,8.12,7.31,7.31,0,0,0,.34,2.7c.5.29,2.48,1.26,9.47,3.49,11.75,3.47,14.24,11.31,14.24,17.28,0,9.18-5.36,16.07-15.92,20.48-9.67,4-23.57,6-42.5,6-21.31,0-36.61-1.43-46.78-4.37-10.52-3.16-16.07-10.47-16.07-21.15,0-4.88,1.32-8.8,3.92-11.66,2.42-2.65,6.39-4.91,12.15-6.93,7.65-2.71,13.48-6.5,17.34-11.28,4.08-5,10.1-16.28,17.9-33.37l27.12-59.45C871.27,964,878,947.62,881.31,937a107.71,107.71,0,0,0,5.13-30.8c.13-11.45.83-19.28,2.15-23.93,1.39-4.88,4.46-9.66,9.14-14.2,9.45-9.58,21.7-14.48,36.35-14.48,13.78,0,27,5.41,39.47,16.07,17,14.3,40.66,54.28,72.48,122.2l36.35,77.91c4,8.4,6.54,11.75,7.91,13.08,1.76,1.72,4.67,2.91,8.65,3.56,13.94,2.13,16.87,10.74,16.87,17.58,0,11-6.49,18.93-19.29,23.58C1084.72,1131.83,1066.2,1133.91,1039.89,1133.91ZM925.24,966.36c-3.83,0-6.76,6.58-8.16,10.51L917,977l0,.13c-.35.78-1.59,3.76-5.53,13.54-7.26,17.62-7.82,21.39-7.82,22.12a.85.85,0,0,0,0,.23s.86,1,5.23,1h37.71c5,0,6.46-.85,6.79-1.1-.06-1.79-1.61-8.07-13.94-29.28-4.22-7.33-7.44-12.23-9.57-14.6C928.26,967.23,926.75,966.36,925.24,966.36Z"/><path class="cls-3" d="M1042.77,993.35l36.36,77.91q5.19,10.79,8.66,14.14t10.58,4.52q13.85,2.13,13.85,14,0,14-16.93,20.19t-55.4,6.16q-43.49,0-64.45-3.66-9.62-1.73-15.29-7a16.85,16.85,0,0,1-5.67-12.79q0-5.77,3-8.94t11.06-5.87q9-3.07,9-10.39,0-12.89-15.58-15.2-16.74-2.31-47.13-2.3-25.59,0-30.59,3.07-3.07,1.93-5.39,6.93a23,23,0,0,0-2.3,9.62q0,4.23,1.63,5.48t10.68,4.13q11.73,3.46,11.73,13.86,0,22.89-54.82,22.89-31.17,0-45.79-4.23-13.46-4.05-13.46-17.7c0-4,1-7,3-9.24s5.55-4.16,10.68-6q12.49-4.43,18.94-12.41t18.38-34.14L864.64,987q15-32.7,20.1-49A110.7,110.7,0,0,0,890,906.21q.19-16.55,2-23t8.18-12.6q13.28-13.46,33.85-13.46,19.44,0,37.13,15.2Q995.84,893.14,1042.77,993.35Zm-133.89,24.24h37.71q10.38,0,10.39-4.61,0-6.36-14.43-31.17-6.54-11.34-10-15.19t-7.31-3.85q-6.93,0-11.55,12.89-.77,1.73-5.58,13.65-8.07,19.63-8.07,23.47Q900,1017.6,908.88,1017.59Z"/><path class="cls-2" d="M1344.25,1131.22l-20-.58c-15.37-.51-29.12-.77-40.87-.77h-13.85c-8,0-17,.39-26.85,1.15-6.45.52-10.82.78-13.35.78-9.34,0-17.11-2.25-23.11-6.67-6.32-4.67-9.53-10.88-9.53-18.47,0-5.42,1.53-9.78,4.54-13,2.85-3,7.19-5.31,13.26-7l.12,0c4.16-1,6.92-2.61,8.2-4.67,1-1.66,2.53-5.68,3.72-15.37,1-9.41,1.93-28.22,2.76-55.84s1.25-55.54,1.25-82.8c0-12.7-1.18-17.9-2.17-20-1.23-2.66-4.49-4.94-9.67-6.78-13-4.88-15.67-13.84-15.67-20.5,0-7.52,3.78-13.69,10.93-17.83,6.62-3.83,15.8-5.77,27.29-5.77,3.57,0,7.75.06,12.79.19,10.71.38,18.56.58,23.38.58,18.2,0,39-.58,62-1.73,4.94-.26,11.15-.39,18.46-.39,29.67,0,53.54,3.45,70.94,10.25,26.09,10.28,46,27.78,59.18,52,11.64,21.21,17.55,46.77,17.55,76a159.66,159.66,0,0,1-6.49,44.58c-4.31,14.84-10.23,27.89-17.59,38.8-15.28,22.14-36.61,37.87-63.4,46.8a158.94,158.94,0,0,1-50.38,7.88Zm-3.72-225.84c-5.09,0-8.71.91-10.48,2.64s-2.67,5.06-2.67,9.73v148.9c0,7,1.39,12,4.12,14.65s7.73,4.07,14.8,4.07c35.38,0,52.57-26.77,52.57-81.82,0-30.7-4.27-54.75-12.69-71.48C1377.14,914.11,1362.2,905.38,1340.53,905.38Z"/><path class="cls-3" d="M1283.39,1126.28h-13.85q-12.12,0-27.12,1.15-9.43.78-13.08.77-12.9,0-21-6t-8.08-15.58q0-6.73,3.56-10.49t11.64-6.05c5.12-1.29,8.59-3.37,10.38-6.26s3.21-8.49,4.24-16.83q1.53-14.43,2.79-56.17t1.25-82.91q0-16.16-2.51-21.55t-11.73-8.65q-13.28-5-13.27-17.12,0-9.42,9.14-14.72t25.48-5.29q5.38,0,12.7.19,16.15.59,23.47.58,27.51,0,62.13-1.73,7.32-.39,18.28-.39,44,0,69.63,10,38.1,15,57.33,50.4,17.12,31.16,17.12,74.25a155.05,155.05,0,0,1-6.35,43.57q-6.35,21.84-17.12,37.8-22.32,32.33-61.56,45.4a154.66,154.66,0,0,1-49.24,7.7l-23.28-.77-20-.58Q1301.09,1126.28,1283.39,1126.28Zm40.4-208.53v148.9q0,12.12,5.19,17.21t17.32,5.1q56.16,0,56.17-85.41,0-47.13-13.08-73.1-14.43-28.66-48.86-28.66-9.24,0-13,3.65T1323.79,917.75Z"/></g></svg>