<svg xmlns="http://www.w3.org/2000/svg" viewBox="0 0 2004.8 2004.8"><defs><style>.cls-1{fill:none;}.cls-2{fill:#1b1b1b;}.cls-3{fill:#005c9c;}.cls-4{fill:#1c1c1c;}.cls-5{fill:#ff470f;}.cls-6{fill:#008200;}.cls-7{fill:#e60003;}.cls-8{fill:#ffb300;}.cls-9{fill:#ff95c1;}</style></defs><g id="Frame"><rect class="cls-1" width="2004.8" height="2004.8"/></g><g id="Yellow"><path class="cls-2" d="M563,1085.91l-25.77.19q-27.14.38-39.63,1.15-11.16,1-16,1-11.73,0-18.66-6-6.74-6-6.73-14.23c0-3.59.83-6.42,2.5-8.47s5.71-5.26,12.12-9.62q5.58-3.84,7.69-12t4.62-35.11q3.66-41.92,3.66-103.3,0-22.5-3-29.91t-13.94-12.22q-12.71-5.39-12.7-15.77,0-8.46,7.6-13.85t19.53-5.39q6.52,0,16.73.58,16.92.76,36.55.77,14.43,0,56.75-1.15,13.27-.39,24-.39,25.59,0,41.27,4.14a68.35,68.35,0,0,1,27.22,13.94q18.85,16,18.85,42.71a63.26,63.26,0,0,1-5.58,25.87,52,52,0,0,1-15,20.1q-6.74,5.4-6.74,9.82c0,3.2,2.7,5.9,8.08,8.07q15.78,6.36,28.67,21.36,13.27,15.59,13.27,39.05,0,27.69-20.2,50.59Q681.46,1088,629.14,1088q-7.12,0-35-1Q568.74,1086.1,563,1085.91Zm13.28-208.72v39.63q0,9.42,2.4,13.27t8.37,3.85q14.24,0,21-8.76t6.73-27.41q0-18.07-6.93-28t-19.62-9.91c-4.49,0-7.59,1.25-9.33,3.76S576.24,870.65,576.24,877.19Zm0,110.8v18.28q0,25.2,3.65,33.47T594.7,1048q29.25,0,29.24-34.24,0-42.71-32.7-42.71-8.46,0-11.73,3.66T576.24,988Z"/><path class="cls-2" d="M763.14,1026.36a32,32,0,0,1,22.7,9.08q9.76,9.22,9.76,23.8a30.55,30.55,0,0,1-9.76,23,32.91,32.91,0,0,1-45.4,0,31,31,0,0,1-9.76-23.38q0-14.31,9.76-23.39A32.85,32.85,0,0,1,763.14,1026.36Z"/><path class="cls-2" d="M1182,1026.36a32,32,0,0,1,22.7,9.08q9.76,9.22,9.76,23.8a30.55,30.55,0,0,1-9.76,23,32.91,32.91,0,0,1-45.4,0,31,31,0,0,1-9.77-23.38q0-14.31,9.77-23.39A32.83,32.83,0,0,1,1182,1026.36Z"/><path class="cls-2" d="M1544.24,1024.2a32,32,0,0,1,22.7,9.08q9.76,9.21,9.77,23.8a30.56,30.56,0,0,1-9.77,23,32.9,32.9,0,0,1-45.39,0,31,31,0,0,1-9.77-23.38q0-14.31,9.77-23.39A32.76,32.76,0,0,1,1544.24,1024.2Z"/><path class="cls-2" d="M1067.28,953.17l36.36,77.91q5.19,10.77,8.66,14.14t10.58,4.52q13.84,2.12,13.85,14,0,14.06-16.93,20.2t-55.4,6.16q-43.49,0-64.45-3.66-9.62-1.73-15.29-7a16.85,16.85,0,0,1-5.67-12.79q0-5.78,3-9t11.06-5.86q9-3.08,9-10.39,0-12.88-15.58-15.2-16.74-2.31-47.13-2.31-25.59,0-30.59,3.08c-2,1.29-3.84,3.59-5.38,6.93a22.9,22.9,0,0,0-2.31,9.62q0,4.23,1.63,5.48t10.68,4.13q11.73,3.46,11.73,13.85,0,22.9-54.82,22.9-31.17,0-45.78-4.24-13.47-4-13.47-17.69,0-6,3-9.24t10.68-6q12.49-4.42,18.95-12.41T862,1006.27l27.12-59.45q15-32.7,20.1-49A110.7,110.7,0,0,0,914.54,866q.19-16.54,2-23t8.18-12.6Q938,817,958.6,817q19.42,0,37.12,15.19Q1020.35,852.95,1067.28,953.17ZM933.4,977.41h37.7q10.39,0,10.39-4.62,0-6.35-14.43-31.16-6.54-11.34-10-15.2t-7.31-3.84q-6.93,0-11.55,12.88-.76,1.74-5.57,13.66-8.08,19.62-8.08,23.47Q924.55,977.42,933.4,977.41Z"/><path class="cls-2" d="M1307.9,1086.1h-13.85q-12.12,0-27.12,1.15-9.43.76-13.08.77-12.9,0-21-6t-8.08-15.58q0-6.74,3.56-10.49t11.64-6.06q7.7-1.92,10.39-6.25t4.23-16.83q1.53-14.43,2.79-56.17t1.25-82.91q0-16.15-2.5-21.55t-11.74-8.65q-13.28-5-13.27-17.12,0-9.44,9.14-14.72t25.49-5.29c3.58,0,7.82.07,12.69.19q16.15.58,23.47.58,27.51,0,62.13-1.73,7.32-.39,18.28-.39,44.06,0,69.64,10,38.09,15,57.32,50.4,17.12,31.15,17.12,74.25a155.1,155.1,0,0,1-6.35,43.57q-6.35,21.84-17.12,37.8-22.31,32.33-61.55,45.4a154.77,154.77,0,0,1-49.25,7.69l-23.28-.77-20-.57Q1325.6,1086.09,1307.9,1086.1Zm40.4-208.53v148.89q0,12.12,5.19,17.22t17.32,5.1q56.16,0,56.17-85.41,0-47.13-13.08-73.1-14.43-28.66-48.86-28.66-9.24,0-13,3.65T1348.3,877.57Z"/><path class="cls-2" d="M457.08,1072c-8.67,0-15.73-2.3-21-6.83-5.31-4.7-8-10.39-8-17,0-4.42,1.12-8,3.31-10.73,1.94-2.38,6-5.66,12.89-10.32,3-2.06,5-5.33,6.23-10,1.36-5.24,2.88-16.86,4.52-34.53,2.42-27.74,3.64-62.39,3.64-103,0-18-1.48-25.49-2.72-28.57-1.62-4-5.67-7.47-12.06-10.27-12.26-5.2-14.84-13.24-14.84-19.07,0-6.85,3.06-12.49,9.11-16.78,5.66-4,12.93-6,21.6-6,4.42,0,10.12.19,16.94.58,11.11.5,23.35.76,36.35.76,9.54,0,28.6-.39,56.65-1.15,8.89-.26,17-.39,24.14-.39,17.28,0,31.47,1.43,42.18,4.26a72,72,0,0,1,28.63,14.68c13.35,11.31,20.12,26.6,20.12,45.44a67.22,67.22,0,0,1-5.88,27.33A55.9,55.9,0,0,1,662.84,912c-4.85,3.88-5.37,6.19-5.37,7,0,1.52,2.12,3.25,5.83,4.75,11,4.43,21.11,11.94,30,22.34,9.39,11,14.14,24.94,14.14,41.39,0,19.29-7.1,37.11-21.1,53-18.46,20.85-46,31.42-81.75,31.42-4.81,0-16.31-.31-35.14-1q-25.23-1-31.08-1.15l-25.71.19c-17.92.25-31.19.64-39.43,1.14C465.73,1071.72,460.41,1072,457.08,1072ZM566.73,954.89c-4.48,0-7.62.85-9.06,2.46-.88,1-2.35,3.7-2.35,10.88V986.5c0,20.21,1.82,28.57,3.35,32,1.16,2.63,3.62,6.13,11.52,6.13,17.5,0,25.65-9.74,25.65-30.65C595.84,967.68,586.32,954.89,566.73,954.89ZM563.65,843.7c-3.22,0-5.36.74-6.37,2.21-.73,1.05-2,4-2,11.51v39.63c0,7.31,1.16,10.26,1.86,11.37.58.93,1.76,2.16,5.32,2.16,8.39,0,14.31-2.41,18.12-7.35,4-5.17,6-13.65,6-25.22,0-11.25-2.12-20-6.28-25.93C576.39,846.44,570.94,843.7,563.65,843.7Z"/><path class="cls-3" d="M538.45,1066.14l-25.77.19q-27.13.39-39.63,1.16-11.16,1-16,1-11.73,0-18.66-6-6.74-6-6.73-14.24,0-5.38,2.5-8.46t12.12-9.62q5.58-3.84,7.69-12T458.62,983q3.64-41.94,3.66-103.3,0-22.51-3-29.92t-13.94-12.21q-12.71-5.39-12.7-15.77,0-8.48,7.6-13.85t19.52-5.39q6.54,0,16.74.58,16.92.77,36.55.77,14.43,0,56.75-1.16,13.28-.37,24-.38,25.59,0,41.27,4.13a68.37,68.37,0,0,1,27.22,14q18.84,16,18.85,42.7a63.31,63.31,0,0,1-5.58,25.88,52,52,0,0,1-15,20.1q-6.75,5.39-6.74,9.81,0,4.82,8.08,8.08,15.78,6.35,28.66,21.35,13.27,15.58,13.28,39.05,0,27.7-20.2,50.6-26.75,30.2-79.06,30.2-7.12,0-35-1Q544.23,1066.33,538.45,1066.14Zm13.28-208.72v39.63c0,6.29.79,10.71,2.4,13.27s4.39,3.85,8.37,3.85q14.24,0,21-8.75T590.2,878q0-18.09-6.93-28t-19.62-9.91q-6.74,0-9.33,3.75T551.73,857.42Zm0,110.81V986.5q0,25.2,3.65,33.47t14.81,8.28q29.23,0,29.24-34.25,0-42.71-32.7-42.7-8.46,0-11.73,3.65C552.81,957.39,551.73,961.82,551.73,968.23Z"/><path class="cls-4" d="M738.63,1075.12a35.61,35.61,0,0,1-25.17-10.06,34.66,34.66,0,0,1-10.89-26c0-10.53,3.67-19.28,10.91-26a36.44,36.44,0,0,1,25.11-10,35.65,35.65,0,0,1,25.2,10c7.23,6.83,10.9,15.71,10.9,26.42A34.15,34.15,0,0,1,763.81,1065,35.62,35.62,0,0,1,738.63,1075.12Z"/><path class="cls-5" d="M738.63,1006.6a32,32,0,0,1,22.7,9.08q9.76,9.21,9.76,23.8a30.58,30.58,0,0,1-9.76,23,32.91,32.91,0,0,1-45.4,0,31.06,31.06,0,0,1-9.77-23.39q0-14.3,9.77-23.38A32.79,32.79,0,0,1,738.63,1006.6Z"/><path class="cls-2" d="M1157.52,1075.12a35.61,35.61,0,0,1-25.17-10.06,34.66,34.66,0,0,1-10.89-26c0-10.53,3.67-19.28,10.91-26a36.44,36.44,0,0,1,25.11-10,35.65,35.65,0,0,1,25.2,10c7.23,6.83,10.89,15.71,10.89,26.42A34.14,34.14,0,0,1,1182.7,1065,35.6,35.6,0,0,1,1157.52,1075.12Z"/><path class="cls-6" d="M1157.52,1006.6a32,32,0,0,1,22.69,9.08q9.76,9.21,9.77,23.8a30.59,30.59,0,0,1-9.77,23,32.9,32.9,0,0,1-45.39,0,31.06,31.06,0,0,1-9.77-23.39q0-14.3,9.77-23.38A32.79,32.79,0,0,1,1157.52,1006.6Z"/><path class="cls-2" d="M1519.73,1075.12a35.59,35.59,0,0,1-25.16-10.06,34.63,34.63,0,0,1-10.9-26c0-10.53,3.68-19.28,10.92-26a36.41,36.41,0,0,1,25.1-10,35.63,35.63,0,0,1,25.2,10c7.23,6.83,10.9,15.71,10.9,26.42a34.18,34.18,0,0,1-10.87,25.56A35.63,35.63,0,0,1,1519.73,1075.12Z"/><path class="cls-7" d="M1519.73,1006.6a32,32,0,0,1,22.7,9.08q9.77,9.21,9.77,23.8a30.59,30.59,0,0,1-9.77,23,32.91,32.91,0,0,1-45.4,0,31,31,0,0,1-9.76-23.39q0-14.3,9.76-23.38A32.8,32.8,0,0,1,1519.73,1006.6Z"/><path class="cls-2" d="M1039.89,1074c-29,0-50.93-1.25-65.06-3.71-7.1-1.28-12.86-4-17.13-7.94a20.39,20.39,0,0,1-6.82-15.42c0-4.77,1.33-8.61,4-11.4,2.42-2.58,6.52-4.81,12.54-6.82,5.83-2,6.59-4.77,6.59-7,0-4.56-1.43-10-12.52-11.65-10.91-1.5-26.6-2.27-46.6-2.27-22.17,0-27.46,1.78-28.71,2.55-1.41.88-2.77,2.7-4,5.37a19.51,19.51,0,0,0-2,8.11,7.31,7.31,0,0,0,.34,2.7c.5.29,2.48,1.27,9.47,3.49,11.75,3.47,14.24,11.32,14.24,17.28,0,9.18-5.36,16.08-15.92,20.48-9.67,4-23.57,6-42.5,6-21.31,0-36.61-1.43-46.78-4.37-10.52-3.15-16.07-10.46-16.07-21.15,0-4.88,1.32-8.8,3.92-11.65,2.42-2.65,6.39-4.92,12.15-6.94,7.65-2.7,13.48-6.5,17.34-11.27,4.08-5.06,10.1-16.29,17.9-33.38l27.12-59.44c9.9-21.57,16.6-37.9,19.94-48.54a107.78,107.78,0,0,0,5.13-30.81c.13-11.45.83-19.27,2.15-23.92,1.39-4.89,4.46-9.67,9.14-14.2,9.45-9.59,21.7-14.48,36.35-14.48,13.78,0,27,5.4,39.47,16.06,17,14.3,40.66,54.28,72.48,122.2l36.35,77.92c4,8.39,6.54,11.75,7.91,13.08,1.76,1.71,4.67,2.9,8.65,3.55,13.94,2.13,16.87,10.74,16.87,17.59,0,11-6.49,18.92-19.29,23.57C1084.72,1071.88,1066.2,1074,1039.89,1074ZM925.24,906.42c-3.83,0-6.76,6.58-8.16,10.5l-.05.13,0,.12c-.35.78-1.59,3.77-5.53,13.54-7.26,17.63-7.82,21.39-7.82,22.13a.94.94,0,0,0,0,.23s.86,1,5.23,1h37.71c5,0,6.46-.85,6.79-1.1-.06-1.79-1.61-8.07-13.94-29.28-4.22-7.32-7.44-12.23-9.57-14.6C928.26,907.28,926.75,906.42,925.24,906.42Z"/><path class="cls-8" d="M1042.77,933.41l36.36,77.91q5.19,10.77,8.66,14.14t10.58,4.52q13.85,2.12,13.85,14,0,14-16.93,20.2t-55.4,6.15q-43.49,0-64.45-3.65-9.62-1.74-15.29-7a16.87,16.87,0,0,1-5.67-12.8q0-5.76,3-8.94t11.06-5.87q9-3.08,9-10.38,0-12.88-15.58-15.2-16.74-2.31-47.13-2.31-25.59,0-30.59,3.08-3.07,1.92-5.39,6.92a23.06,23.06,0,0,0-2.3,9.62q0,4.23,1.63,5.48t10.68,4.14q11.73,3.46,11.73,13.85,0,22.89-54.82,22.89-31.17,0-45.79-4.23-13.46-4-13.46-17.7,0-6,3-9.23t10.68-6q12.49-4.41,18.94-12.4t18.38-34.15l27.12-59.44q15-32.7,20.1-49A110.64,110.64,0,0,0,890,846.27q.19-16.54,2-23t8.18-12.6q13.28-13.47,33.85-13.47,19.44,0,37.13,15.2Q995.84,833.19,1042.77,933.41ZM908.88,957.65h37.71Q957,957.65,957,953q0-6.35-14.43-31.16-6.54-11.36-10-15.2c-2.31-2.56-4.75-3.85-7.31-3.85q-6.93,0-11.55,12.89-.77,1.74-5.58,13.66Q900,949,900,952.84,900,957.66,908.88,957.65Z"/><path class="cls-2" d="M1344.25,1071.27l-20-.57c-15.37-.51-29.12-.77-40.87-.77h-13.85c-8,0-17,.38-26.85,1.14-6.45.53-10.82.78-13.35.78-9.34,0-17.11-2.24-23.11-6.67-6.32-4.67-9.53-10.88-9.53-18.47,0-5.42,1.53-9.78,4.54-13,2.85-3,7.19-5.3,13.26-7l.12,0c4.16-1,6.92-2.61,8.2-4.66,1-1.67,2.53-5.69,3.72-15.38,1-9.41,1.93-28.22,2.76-55.83s1.25-55.55,1.25-82.81c0-12.69-1.18-17.9-2.17-20-1.23-2.66-4.49-4.94-9.67-6.78-13-4.88-15.67-13.85-15.67-20.51,0-7.52,3.78-13.68,10.93-17.82,6.62-3.84,15.8-5.78,27.29-5.78,3.57,0,7.75.06,12.79.2,10.71.38,18.56.57,23.38.57,18.2,0,39-.58,62-1.73,4.94-.25,11.15-.39,18.46-.39,29.67,0,53.54,3.45,70.94,10.26,26.09,10.27,46,27.77,59.18,52,11.64,21.2,17.55,46.76,17.55,76a159.61,159.61,0,0,1-6.49,44.58c-4.31,14.84-10.23,27.9-17.59,38.81-15.28,22.13-36.61,37.86-63.4,46.79a158.94,158.94,0,0,1-50.38,7.88Zm-3.72-225.83c-5.09,0-8.71.91-10.48,2.63s-2.67,5.07-2.67,9.74V1006.7c0,7,1.39,12,4.12,14.65s7.73,4.07,14.8,4.07c35.38,0,52.57-26.76,52.57-81.82,0-30.7-4.27-54.75-12.69-71.48C1377.14,854.16,1362.2,845.44,1340.53,845.44Z"/><path class="cls-9" d="M1283.39,1066.33h-13.85q-12.12,0-27.12,1.16-9.43.77-13.08.77-12.9,0-21-6t-8.08-15.58q0-6.74,3.56-10.48t11.64-6.06c5.12-1.28,8.59-3.37,10.38-6.25s3.21-8.5,4.24-16.83q1.53-14.43,2.79-56.18t1.25-82.91q0-16.15-2.51-21.54t-11.73-8.66q-13.28-5-13.27-17.12,0-9.42,9.14-14.71t25.48-5.3q5.38,0,12.7.2,16.15.57,23.47.57,27.51,0,62.13-1.73,7.32-.37,18.28-.38,44,0,69.63,10,38.1,15,57.33,50.4,17.12,31.17,17.12,74.26a155.16,155.16,0,0,1-6.35,43.57q-6.35,21.83-17.12,37.8-22.32,32.31-61.56,45.4a154.66,154.66,0,0,1-49.24,7.69l-23.28-.77-20-.58Q1301.09,1066.34,1283.39,1066.33Zm40.4-208.52V1006.7q0,12.12,5.19,17.22t17.32,5.1q56.16,0,56.17-85.42,0-47.11-13.08-73.1-14.43-28.65-48.86-28.66-9.24,0-13,3.66T1323.79,857.81Z"/><path d="M458.74,1189.68a23.3,23.3,0,0,1-6.15-4.77q-1.44-1.44-1.89-1.44c-.52,0-1.22.93-2.1,2.77a27.88,27.88,0,0,1-1.72,3,2.24,2.24,0,0,1-1.94,1,1.42,1.42,0,0,1-1.33-.55,4,4,0,0,1-.22-2.11,119.93,119.93,0,0,0,.77-15.63v-48.44a7.48,7.48,0,0,0-.5-3.27c-.33-.62-1.12-.94-2.38-.94a21.4,21.4,0,0,0-2.22.11,16.52,16.52,0,0,1-1.66.11,3.44,3.44,0,0,1-1.61-.28,1.24,1.24,0,0,1-.61-.94q0-1.87,3.22-3l4.54-1.33q6-2,8-2a3.45,3.45,0,0,1,2.39.67,3.08,3.08,0,0,1,.72,2.33V1147c0,1.26.14,1.89.44,1.89a29.67,29.67,0,0,0,2-3.22,19.23,19.23,0,0,1,6.09-6A18.32,18.32,0,0,1,473,1136.8a18.65,18.65,0,0,1,10.48,3.11,20.92,20.92,0,0,1,7.43,9.09,33.8,33.8,0,0,1,2.71,14.07,32.66,32.66,0,0,1-3.21,14.69,24.79,24.79,0,0,1-8.93,10.14,23.57,23.57,0,0,1-13,3.66Q462.23,1191.56,458.74,1189.68Zm20.51-8.37q4-5.37,4-14.58,0-10.63-3.82-16.68t-10.37-6a13.12,13.12,0,0,0-11,5.32,21.14,21.14,0,0,0-4,13.19v1.89q0,11.08,3.93,16.68a12.42,12.42,0,0,0,10.7,5.6A12.64,12.64,0,0,0,479.25,1181.31Z"/><path d="M502.8,1190.18a2,2,0,0,1-1.44-1.83,2.2,2.2,0,0,1,1.77-2.22,11.24,11.24,0,0,0,4.44-1.33,3.55,3.55,0,0,0,1.61-2.33,30.07,30.07,0,0,0,.27-4.87V1149a9.06,9.06,0,0,0-.44-3.33c-.3-.66-1-1-2.22-1-.81,0-1.59,0-2.33.11a17.68,17.68,0,0,1-1.88.12,3.57,3.57,0,0,1-1.61-.28,1.23,1.23,0,0,1-.5-1.17,1.88,1.88,0,0,1,.84-1.6,9.22,9.22,0,0,1,2.38-1.17l4.54-1.33c4-1.33,6.66-2,8-2a3.49,3.49,0,0,1,2.38.66,3.09,3.09,0,0,1,.72,2.33v6.32c0,1.11.15,1.66.44,1.66a22.79,22.79,0,0,0,1.55-3,16.07,16.07,0,0,1,5.05-5.76,14.77,14.77,0,0,1,9.14-2.72q5.55,0,8.65,3.38t3.1,9.26a10.27,10.27,0,0,1-1.49,5.65,5,5,0,0,1-4.49,2.33,4.51,4.51,0,0,1-3.16-1.27,3.78,3.78,0,0,1-.94-3.72,8,8,0,0,0,.55-3.1q0-5.2-6.1-5.21a9.48,9.48,0,0,0-5.93,2.22,15.75,15.75,0,0,0-4.6,6.37,24.62,24.62,0,0,0-1.77,9.7v15.19a23.94,23.94,0,0,0,.33,4.76,3.77,3.77,0,0,0,1.66,2.33,12.42,12.42,0,0,0,4.44,1.44c1.33.37,2,1.11,2,2.22a2,2,0,0,1-1.27,1.83,14.21,14.21,0,0,1-5.16.61l-6.65-.11-6.65.11A15.28,15.28,0,0,1,502.8,1190.18Z"/><path d="M566.43,1188.07a24.51,24.51,0,0,1-9.64-9.75,30.76,30.76,0,0,1,0-28.27,24.53,24.53,0,0,1,9.64-9.76,28.3,28.3,0,0,1,14.08-3.49,28,28,0,0,1,14,3.49,24.67,24.67,0,0,1,9.59,9.76,30.86,30.86,0,0,1,0,28.32,24.83,24.83,0,0,1-9.53,9.7,27.83,27.83,0,0,1-14.08,3.49A28.19,28.19,0,0,1,566.43,1188.07Zm26.33-6.7q4.38-5.22,4.38-13.86A35.4,35.4,0,0,0,595,1155.2a24.37,24.37,0,0,0-6.16-9.58,13.08,13.08,0,0,0-9.2-3.72,14.27,14.27,0,0,0-11.47,5.21q-4.38,5.22-4.38,13.75a36.29,36.29,0,0,0,2.16,12.41,23.75,23.75,0,0,0,6.15,9.65,13.21,13.21,0,0,0,9.21,3.65A14.27,14.27,0,0,0,592.76,1181.37Z"/><path d="M615.48,1190.12a1.85,1.85,0,0,1-1.16-1.77,2.23,2.23,0,0,1,1.88-2.22,11.44,11.44,0,0,0,4.55-1.33,3.55,3.55,0,0,0,1.61-2.33,30.07,30.07,0,0,0,.27-4.87v-54a7.47,7.47,0,0,0-.5-3.21,2.16,2.16,0,0,0-2.16-1c-.81,0-1.59,0-2.33.11s-1.36.11-1.88.11c-1.33,0-2-.4-2.11-1.22a2.26,2.26,0,0,1,.84-1.88,6.69,6.69,0,0,1,2.38-1.11l4.54-1.33q6-2,8-2a3.45,3.45,0,0,1,2.39.67,3.08,3.08,0,0,1,.72,2.33v45.56a3.16,3.16,0,0,0,.28,1.44.88.88,0,0,0,.83.55,2.72,2.72,0,0,0,1.66-1l16.07-16.07a3.93,3.93,0,0,0,1.44-2.44c0-.44-.27-.72-.83-.83a35.75,35.75,0,0,0-4-.28,1.77,1.77,0,0,1-1.67-2,1.67,1.67,0,0,1,1.06-1.61,6.09,6.09,0,0,1,2.6-.5l8.65.11,8.42-.11c2.37,0,3.55.78,3.55,2.33s-.81,2.29-2.44,2.44a15.73,15.73,0,0,0-6.37,1.22,16.38,16.38,0,0,0-4.38,3.21l-7,7a4.22,4.22,0,0,0-1.56,2.66,3.1,3.1,0,0,0,.78,1.88l15.08,21.28a19.7,19.7,0,0,0,4,4.44,9.34,9.34,0,0,0,4.38,1.22c1.85.44,2.77,1.29,2.77,2.55a2.1,2.1,0,0,1-1.05,1.88,5.29,5.29,0,0,1-2.83.67c-2.14-.08-4.88-.11-8.2-.11s-6.21,0-8.43.11a9.05,9.05,0,0,1-3.82-.56,2,2,0,0,1-1-1.88,1.15,1.15,0,0,1,.66-1.11,16.12,16.12,0,0,1,2.11-.78,8.57,8.57,0,0,0,2.1-.77,1.36,1.36,0,0,0,.78-1.22,4.51,4.51,0,0,0-1-2.33l-11.86-16.52a3,3,0,0,0-2.33-1.55,2.66,2.66,0,0,0-1.88.89l-5.1,5.1a3.57,3.57,0,0,0-1.22,2,26.69,26.69,0,0,0-.22,4.33v3.1a13.7,13.7,0,0,0,.33,3.49,3.27,3.27,0,0,0,1.72,1.94A13.49,13.49,0,0,0,639,1186c1.4.52,2.11,1.29,2.11,2.33a1.89,1.89,0,0,1-1,1.77,8,8,0,0,1-3.55.56c-2.14-.08-5.1-.11-8.87-.11s-6.54,0-8.53.11A9.21,9.21,0,0,1,615.48,1190.12Z"/><path d="M689.86,1187.79a23.8,23.8,0,0,1-8.64-10.14,33.34,33.34,0,0,1-2.94-14.13,27.39,27.39,0,0,1,3.49-13.86,24.95,24.95,0,0,1,21.89-12.75,22.79,22.79,0,0,1,11,2.61,20.06,20.06,0,0,1,7.49,6.71,15.48,15.48,0,0,1,2.66,8.53c0,2.37-.58,4-1.72,4.93a11.74,11.74,0,0,1-5.71,1.94l-26.6,4a2.18,2.18,0,0,0-1.28.5,1.77,1.77,0,0,0-.39,1.28A18.19,18.19,0,0,0,697,1182a15.64,15.64,0,0,0,9.14,2.66,18.66,18.66,0,0,0,9.54-2.38,23.24,23.24,0,0,0,6.87-6,2.08,2.08,0,0,1,1.55-1,1.57,1.57,0,0,1,1.61.89,2.23,2.23,0,0,1,.05,1.77,23.5,23.5,0,0,1-8.48,9.81,26.59,26.59,0,0,1-27.38,0ZM712,1157.31a6,6,0,0,0,2.88-1,2.6,2.6,0,0,0,.78-2.1,11.78,11.78,0,0,0-1.61-5.77,12.94,12.94,0,0,0-4.66-4.76,13.08,13.08,0,0,0-7-1.89,12.52,12.52,0,0,0-6.7,2,15.39,15.39,0,0,0-5.32,5.77,17,17,0,0,0-2,8.37,6,6,0,0,0,.27,2.16,1,1,0,0,0,1,.61,3.45,3.45,0,0,0,1-.11Z"/><path d="M733.7,1190a2,2,0,0,1-1.44-1.83A2,2,0,0,1,734,1186a12.35,12.35,0,0,0,4.43-1.44,3.55,3.55,0,0,0,1.61-2.33,28.86,28.86,0,0,0,.28-4.76v-28.6a8.43,8.43,0,0,0-.45-3.22c-.29-.66-1-1-2.21-1l-4.11.11a3.86,3.86,0,0,1-1.71-.27,1.1,1.1,0,0,1-.5-1.06,1.87,1.87,0,0,1,.83-1.6,9.38,9.38,0,0,1,2.38-1.17l3.22-1q7.43-2.33,9.31-2.32a3.47,3.47,0,0,1,2.38.66,3.09,3.09,0,0,1,.72,2.33V1147c0,.89.15,1.33.45,1.33a24.91,24.91,0,0,0,1.66-3,16,16,0,0,1,5.6-5.76q4-2.71,10.47-2.72,15.52,0,17.85,20.4l2.1,19a59.76,59.76,0,0,0,.95,6.09,3.25,3.25,0,0,0,1.6,2.22,16,16,0,0,0,4.33,1.22c1.47.44,2.21,1.26,2.21,2.44a2,2,0,0,1-1,1.83,8.09,8.09,0,0,1-3.77.61l-7.87-.12-7.54.12a16,16,0,0,1-4.88-.5,1.9,1.9,0,0,1-1.33-1.94,2.26,2.26,0,0,1,2.11-2.33,11.64,11.64,0,0,0,4.65-1.39c.74-.55,1.11-1.71,1.11-3.49,0-.59-.15-2.44-.44-5.54L776.6,1159q-.89-7.76-3.77-11.41t-8.64-3.66a12.25,12.25,0,0,0-6.54,2,14.94,14.94,0,0,0-5.32,6.1,22.08,22.08,0,0,0-2.11,10.2v15.18a25,25,0,0,0,.33,4.83,3.58,3.58,0,0,0,1.67,2.32,13.07,13.07,0,0,0,4.43,1.39c1.33.37,2,1.11,2,2.22a2,2,0,0,1-1.28,1.83,14.18,14.18,0,0,1-5.15.61l-6.65-.12-6.66.12A15.28,15.28,0,0,1,733.7,1190Z"/><path d="M842.73,1187.46a14.4,14.4,0,0,1-4.16-10.75,13.94,13.94,0,0,1,6-11.7q6-4.48,17.24-4.82a55.86,55.86,0,0,0,6.65-.44,4.92,4.92,0,0,0,2.77-1,2.51,2.51,0,0,0,.44-2.17l-.33-2.77q-.78-6-3.44-9a9.43,9.43,0,0,0-7.42-3,11.41,11.41,0,0,0-8,2.72,9.42,9.42,0,0,0-2.89,7.59,4.61,4.61,0,0,1-1.55,3.22,5.23,5.23,0,0,1-3.43,1.1,3.85,3.85,0,0,1-2.72-1.1,4.09,4.09,0,0,1-1.17-3.11,12,12,0,0,1,2.89-7.76,19.42,19.42,0,0,1,7.87-5.6,29,29,0,0,1,11.08-2q8.65,0,13.14,4.49t5.49,13.25l2.66,21.39c.37,3.18.88,5.34,1.55,6.49a3,3,0,0,0,2.66,1.72,2.67,2.67,0,0,0,1.72-.5,7.63,7.63,0,0,0,1.33-1.55c.48-.71.9-1.06,1.27-1.06,1,0,1.55.71,1.55,2.11a7.06,7.06,0,0,1-1.11,3.55,9.24,9.24,0,0,1-3.15,3.16,8.65,8.65,0,0,1-4.6,1.27,7.85,7.85,0,0,1-6-2.22,14.26,14.26,0,0,1-3-6.65c-.3-.66-.56-1-.78-1s-1,1-2.38,2.83a18.81,18.81,0,0,1-6.32,5.16q-4.27,2.33-11.25,2.32Q846.88,1191.56,842.73,1187.46Zm26.65-5.87a13.71,13.71,0,0,0,4.11-10.09,13.86,13.86,0,0,0-.11-2l-.23-2.21a3.35,3.35,0,0,0-.94-2.16,4.27,4.27,0,0,0-2.33-.78c-1.07-.11-3-.17-5.82-.17q-8,0-11.75,2.94a9.32,9.32,0,0,0-3.77,7.71q0,5.2,2.72,8t8.15,2.83A13.58,13.58,0,0,0,869.38,1181.59Z"/><path d="M901.53,1190a2,2,0,0,1-1.44-1.83,2,2,0,0,1,1.77-2.11,12.42,12.42,0,0,0,4.44-1.44,3.53,3.53,0,0,0,1.6-2.33,27.77,27.77,0,0,0,.28-4.76v-28.6a8.67,8.67,0,0,0-.44-3.22c-.3-.66-1-1-2.22-1l-4.1.11a3.88,3.88,0,0,1-1.72-.27,1.12,1.12,0,0,1-.5-1.06,1.9,1.9,0,0,1,.83-1.6,9.56,9.56,0,0,1,2.38-1.17l3.22-1q7.43-2.33,9.31-2.32a3.52,3.52,0,0,1,2.39.66,3.13,3.13,0,0,1,.72,2.33V1147c0,.89.14,1.33.44,1.33a23.29,23.29,0,0,0,1.66-3,16.13,16.13,0,0,1,5.6-5.76q4.05-2.71,10.48-2.72,15.51,0,17.84,20.4l2.11,19a60.7,60.7,0,0,0,.94,6.09,3.26,3.26,0,0,0,1.61,2.22,15.82,15.82,0,0,0,4.32,1.22c1.48.44,2.22,1.26,2.22,2.44a2,2,0,0,1-1,1.83,8,8,0,0,1-3.77.61l-7.87-.12-7.54.12a16,16,0,0,1-4.87-.5,1.9,1.9,0,0,1-1.33-1.94,2.26,2.26,0,0,1,2.1-2.33,11.64,11.64,0,0,0,4.66-1.39c.73-.55,1.11-1.71,1.11-3.49,0-.59-.15-2.44-.45-5.54L944.43,1159q-.88-7.76-3.77-11.41T932,1143.9a12.28,12.28,0,0,0-6.54,2,15,15,0,0,0-5.32,6.1,22.21,22.21,0,0,0-2.1,10.2v15.18a25,25,0,0,0,.33,4.83,3.54,3.54,0,0,0,1.66,2.32,13.15,13.15,0,0,0,4.43,1.39c1.34.37,2,1.11,2,2.22a2,2,0,0,1-1.27,1.83,14.24,14.24,0,0,1-5.16.61l-6.65-.12-6.65.12A15.28,15.28,0,0,1,901.53,1190Z"/><path d="M982.12,1188a23.51,23.51,0,0,1-8.82-9.87,31.36,31.36,0,0,1-3-13.91,29.33,29.33,0,0,1,3.32-14.08,24.91,24.91,0,0,1,9-9.69,23.86,23.86,0,0,1,12.7-3.5,25.53,25.53,0,0,1,10,2,19.59,19.59,0,0,1,7.76,5.71,12.78,12.78,0,0,1,2.94,8.21,5,5,0,0,1-1,3.16,3.45,3.45,0,0,1-2.88,1.27q-4.11,0-5.32-4.66a12.27,12.27,0,0,0-3.22-7.81q-2.88-3-8.76-3a12.34,12.34,0,0,0-7.2,2.33,16.54,16.54,0,0,0-5.38,6.65,23.27,23.27,0,0,0-2,10.09q0,10.31,4.71,17.07t13.36,6.76a18.7,18.7,0,0,0,9.2-2.27,21.72,21.72,0,0,0,6.87-5.93c.52-.82,1.07-1.22,1.67-1.22a1.62,1.62,0,0,1,1.55.83,2.26,2.26,0,0,1,.11,1.83,23,23,0,0,1-8.31,9.92q-5.55,3.72-13.75,3.71A25,25,0,0,1,982.12,1188Z"/><path d="M1027.68,1190a2,2,0,0,1-1.45-1.83,1.93,1.93,0,0,1,.5-1.33,2.75,2.75,0,0,1,1.39-.78,12.28,12.28,0,0,0,4.43-1.44,3.55,3.55,0,0,0,1.61-2.33,28.86,28.86,0,0,0,.28-4.76v-53.88a7.63,7.63,0,0,0-.5-3.21c-.33-.67-1.09-1-2.27-1-.82,0-1.57,0-2.28.11s-1.31.11-1.83.11a3.36,3.36,0,0,1-1.6-.28,1.21,1.21,0,0,1-.5-1.16,1.93,1.93,0,0,1,.83-1.61,9.76,9.76,0,0,1,2.38-1.16q2.22-.56,5.21-1.55c.37-.08,1.46-.39,3.27-.95a15.62,15.62,0,0,1,4-.83,3.24,3.24,0,0,1,2.27.67,3.08,3.08,0,0,1,.72,2.33v30.59c0,1.77.15,2.66.45,2.66a13.2,13.2,0,0,0,1.77-3,16.16,16.16,0,0,1,5.54-5.76q4-2.71,10.42-2.72a16.21,16.21,0,0,1,12,4.66q4.67,4.65,5.66,14.08l2.33,20.73a35.44,35.44,0,0,0,.94,5.93,3.64,3.64,0,0,0,1.72,2.27,15.82,15.82,0,0,0,4.32,1.22c1.48.52,2.22,1.33,2.22,2.44a2,2,0,0,1-1.17,1.83,10.69,10.69,0,0,1-4.38.61l-7.87-.12-7.54.12a12.89,12.89,0,0,1-4.32-.5,1.91,1.91,0,0,1-1.22-1.94c0-1.18.74-2,2.22-2.33a12.13,12.13,0,0,0,4.6-1.55c.78-.59,1.16-1.81,1.16-3.66,0-.59-.15-2.29-.44-5.1l-2.11-18.4q-.89-6.87-3.76-10c-1.93-2.11-4.77-3.16-8.54-3.16a12.54,12.54,0,0,0-6.54,1.94,14.5,14.5,0,0,0-5.32,6,22.36,22.36,0,0,0-2.11,10.31v15.18a24,24,0,0,0,.34,4.83,3.54,3.54,0,0,0,1.66,2.32,13.07,13.07,0,0,0,4.43,1.39c1.33.37,2,1.11,2,2.22a2,2,0,0,1-1.28,1.83,14.18,14.18,0,0,1-5.15.61l-6.54-.12-6.65.12A15.68,15.68,0,0,1,1027.68,1190Z"/><path d="M1109.59,1188.07a24.57,24.57,0,0,1-9.64-9.75,30.76,30.76,0,0,1,0-28.27,24.59,24.59,0,0,1,9.64-9.76,30,30,0,0,1,28.11,0,24.64,24.64,0,0,1,9.58,9.76,30.86,30.86,0,0,1,0,28.32,24.83,24.83,0,0,1-9.53,9.7,27.8,27.8,0,0,1-14.08,3.49A28.19,28.19,0,0,1,1109.59,1188.07Zm26.33-6.7q4.38-5.22,4.38-13.86a35.4,35.4,0,0,0-2.16-12.31,24.25,24.25,0,0,0-6.15-9.58,13.1,13.1,0,0,0-9.2-3.72,14.29,14.29,0,0,0-11.48,5.21q-4.38,5.22-4.38,13.75a36.07,36.07,0,0,0,2.17,12.41,23.75,23.75,0,0,0,6.15,9.65,13.18,13.18,0,0,0,9.2,3.65A14.26,14.26,0,0,0,1135.92,1181.37Z"/><path d="M1159.92,1190.18a2,2,0,0,1-1.44-1.83,2.2,2.2,0,0,1,1.77-2.22,11.24,11.24,0,0,0,4.44-1.33,3.58,3.58,0,0,0,1.61-2.33,30.07,30.07,0,0,0,.27-4.87V1149a9.06,9.06,0,0,0-.44-3.33c-.3-.66-1-1-2.22-1-.81,0-1.59,0-2.33.11a18,18,0,0,1-1.88.12,3.54,3.54,0,0,1-1.61-.28,1.23,1.23,0,0,1-.5-1.17,1.9,1.9,0,0,1,.83-1.6,9.47,9.47,0,0,1,2.39-1.17l4.54-1.33q6-2,8-2a3.5,3.5,0,0,1,2.39.66,3.09,3.09,0,0,1,.72,2.33v6.32c0,1.11.14,1.66.44,1.66a22.79,22.79,0,0,0,1.55-3,16,16,0,0,1,5-5.76,14.77,14.77,0,0,1,9.14-2.72q5.55,0,8.65,3.38t3.1,9.26a10.27,10.27,0,0,1-1.49,5.65,5,5,0,0,1-4.49,2.33,4.51,4.51,0,0,1-3.16-1.27,3.81,3.81,0,0,1-1-3.72,8,8,0,0,0,.56-3.1q0-5.2-6.1-5.21a9.48,9.48,0,0,0-5.93,2.22,15.75,15.75,0,0,0-4.6,6.37,24.62,24.62,0,0,0-1.77,9.7v15.19a23.94,23.94,0,0,0,.33,4.76,3.77,3.77,0,0,0,1.66,2.33,12.42,12.42,0,0,0,4.44,1.44c1.33.37,2,1.11,2,2.22a2,2,0,0,1-1.27,1.83,14.21,14.21,0,0,1-5.16.61l-6.65-.11-6.65.11A15.28,15.28,0,0,1,1159.92,1190.18Z"/><path d="M1256.08,1188.18a21.5,21.5,0,0,1-7.26-9.53,36.64,36.64,0,0,1-2.55-14.13,33.53,33.53,0,0,1,2.88-14.08,23.45,23.45,0,0,1,8.21-9.92,21.42,21.42,0,0,1,12.3-3.61,17.17,17.17,0,0,1,8.37,1.72,20.23,20.23,0,0,1,4.77,3.55c1.14,1.22,1.83,1.83,2,1.83.44,0,.72-.5.83-1.5s.17-2.83.17-5.48v-13.42a6.9,6.9,0,0,0-.56-3.27c-.37-.62-1.18-.94-2.44-.94a19.89,19.89,0,0,0-2.1.11,17.43,17.43,0,0,1-1.78.11,3.36,3.36,0,0,1-1.6-.28,1.07,1.07,0,0,1-.5-1q0-1.77,3.21-2.88l4.1-1.22q2.55-.78,4.88-1.44a13.85,13.85,0,0,1,3.55-.67,3.24,3.24,0,0,1,2.27.67,3.08,3.08,0,0,1,.72,2.33v64.4a6.84,6.84,0,0,0,.56,3.22,2.29,2.29,0,0,0,2.21,1,22.91,22.91,0,0,0,2.44-.11c.74-.07,1.37-.11,1.88-.11a2.8,2.8,0,0,1,1.45.28,1.28,1.28,0,0,1,.55.94,2.13,2.13,0,0,1-.83,1.83,9.58,9.58,0,0,1-2.38,1.16c-1.48.37-3.26.89-5.32,1.56q-5.55,1.77-7.32,1.77a3.23,3.23,0,0,1-2.27-.67,3.07,3.07,0,0,1-.72-2.32v-5.77c-.08-1.77-.23-2.66-.45-2.66a29,29,0,0,0-2.05,3.16,20.26,20.26,0,0,1-6.15,6,19.57,19.57,0,0,1-21.12-.56Zm22.78-5.71a15.18,15.18,0,0,0,5.1-6.15,20.08,20.08,0,0,0,1.89-8.81v-3.66q0-10.41-3.83-16.29a12.27,12.27,0,0,0-10.92-5.88,12.68,12.68,0,0,0-7.2,2.22,15.63,15.63,0,0,0-5.38,6.59,24.52,24.52,0,0,0-2,10.48q0,11.08,4.1,17.4t11.2,6.32A12.21,12.21,0,0,0,1278.86,1182.47Z"/><path d="M1312.67,1190.18a2,2,0,0,1-1.44-1.83,2.2,2.2,0,0,1,1.77-2.22,11.24,11.24,0,0,0,4.44-1.33,3.58,3.58,0,0,0,1.61-2.33,30.07,30.07,0,0,0,.27-4.87v-28.71a8.67,8.67,0,0,0-.44-3.22,2,2,0,0,0-2-1c-.88,0-1.7,0-2.44.11a17.68,17.68,0,0,1-1.88.12,3.88,3.88,0,0,1-1.72-.28,1.23,1.23,0,0,1-.5-1.17,1.9,1.9,0,0,1,.83-1.6,9.47,9.47,0,0,1,2.39-1.17l3.21-1c5-1.55,8.06-2.32,9.31-2.32a3.5,3.5,0,0,1,2.39.66,3.09,3.09,0,0,1,.72,2.33v37.25a23.94,23.94,0,0,0,.33,4.76,3.77,3.77,0,0,0,1.66,2.33,12.42,12.42,0,0,0,4.44,1.44c1.33.37,2,1.11,2,2.22a2,2,0,0,1-1.27,1.83,14.21,14.21,0,0,1-5.16.61l-6.65-.11-6.65.11A15.28,15.28,0,0,1,1312.67,1190.18Zm4.32-63.41a5.09,5.09,0,0,1-2-4.16,4.79,4.79,0,0,1,2-4,8.65,8.65,0,0,1,5.32-1.5,8.2,8.2,0,0,1,5.16,1.5,4.85,4.85,0,0,1,1.94,4,5.16,5.16,0,0,1-1.94,4.16,7.83,7.83,0,0,1-5.16,1.61A8.25,8.25,0,0,1,1317,1126.77Z"/><path d="M1390.1,1184.14a12.67,12.67,0,0,1,3.82,9.42q0,8.09-7,12.86t-18.68,4.76a41.28,41.28,0,0,1-9.87-1.16,26.51,26.51,0,0,1-8.31-3.49q-6.77-4.32-6.76-11a4.86,4.86,0,0,1,5.09-5.21,6.31,6.31,0,0,1,3.94,1.33,6.87,6.87,0,0,1,2.38,3.77,9.35,9.35,0,0,0,3.22,7.21q3.87,3.54,11.53,3.55,6.64,0,10.86-3.22a10.09,10.09,0,0,0,4.21-8.42,12.21,12.21,0,0,0-4.76-9.87q-4.77-3.89-12.42-4a26.89,26.89,0,0,1-12.14-2.72,21.17,21.17,0,0,1-8.64-7.64,20.8,20.8,0,0,1-3.16-11.48,20.53,20.53,0,0,1,3.1-11.08,21.92,21.92,0,0,1,8.81-7.93,27.81,27.81,0,0,1,12.92-2.94,27,27,0,0,1,9.2,1.45v-.12a8.46,8.46,0,0,0,1.66.12q5.33,0,5.32-7.65a4,4,0,0,1,1.39-3.27,4.89,4.89,0,0,1,3.27-1.17,4.7,4.7,0,0,1,3.27,1.28,4.12,4.12,0,0,1,1.38,3.16,10.2,10.2,0,0,1-2.6,7.09,13,13,0,0,1-6.82,3.88,22.65,22.65,0,0,1,6.43,7.48,20.38,20.38,0,0,1,2.33,9.7,20.26,20.26,0,0,1-13.64,19.84Q1386.27,1180.36,1390.1,1184.14Zm-32.31-13.64a13.74,13.74,0,0,0,11.19,5.32,13.21,13.21,0,0,0,10.15-4.1q3.82-4.1,3.82-10.86a21.27,21.27,0,0,0-4.32-13.58,13.62,13.62,0,0,0-11.2-5.49,13.12,13.12,0,0,0-9.92,4.27,14.92,14.92,0,0,0-4,10.7Q1353.46,1165.17,1357.79,1170.5Z"/><path d="M1404.12,1190.18a2,2,0,0,1-1.44-1.83,2.2,2.2,0,0,1,1.77-2.22,11.24,11.24,0,0,0,4.44-1.33,3.58,3.58,0,0,0,1.61-2.33,30.07,30.07,0,0,0,.27-4.87v-28.71a8.67,8.67,0,0,0-.44-3.22,2,2,0,0,0-2-1c-.88,0-1.7,0-2.43.11a18,18,0,0,1-1.89.12,3.91,3.91,0,0,1-1.72-.28,1.23,1.23,0,0,1-.5-1.17,1.88,1.88,0,0,1,.84-1.6,9.22,9.22,0,0,1,2.38-1.17l3.21-1c5-1.55,8.06-2.32,9.31-2.32a3.5,3.5,0,0,1,2.39.66,3.09,3.09,0,0,1,.72,2.33v37.25a23.94,23.94,0,0,0,.33,4.76,3.77,3.77,0,0,0,1.66,2.33,12.42,12.42,0,0,0,4.44,1.44c1.33.37,2,1.11,2,2.22a2,2,0,0,1-1.27,1.83,14.21,14.21,0,0,1-5.16.61l-6.65-.11-6.65.11A15.28,15.28,0,0,1,1404.12,1190.18Zm4.32-63.41a5.09,5.09,0,0,1-2-4.16,4.79,4.79,0,0,1,2-4,8.67,8.67,0,0,1,5.33-1.5,8.19,8.19,0,0,1,5.15,1.5,4.85,4.85,0,0,1,1.94,4,5.16,5.16,0,0,1-1.94,4.16,7.82,7.82,0,0,1-5.15,1.61A8.26,8.26,0,0,1,1408.44,1126.77Z"/><path d="M1446.36,1187.24q-4.11-4.21-4.11-13.19v-29a1.94,1.94,0,0,0-.61-1.67,2.9,2.9,0,0,0-1.71-.44h-1.56a1.77,1.77,0,0,1-1.44-.67,2.32,2.32,0,0,1-.55-1.55,8.43,8.43,0,0,1,1.44-3.88l1.11-1.66a35.65,35.65,0,0,1,5.87-9,8.2,8.2,0,0,1,5.55-2.44,1.72,1.72,0,0,1,1.55.67,4.2,4.2,0,0,1,.44,2.22v7.64a12.7,12.7,0,0,0,.22,3.16c.15.41.56.61,1.22.61h15.41a2.35,2.35,0,0,1,1.55.39,2.13,2.13,0,0,1,.45,1.61,2.71,2.71,0,0,1-.84,2.1,3,3,0,0,1-2.16.78h-13.63q-2.55,0-2.55,2.22v27.38q0,6,2.49,9a8.55,8.55,0,0,0,6.93,3,11.14,11.14,0,0,0,5.49-1.61,14.58,14.58,0,0,0,4.93-4.82,2.12,2.12,0,0,1,1.66-1.11,1.43,1.43,0,0,1,1.33.78,1.83,1.83,0,0,1,.11,1.66q-4.65,12.09-17.18,12.08Q1450.47,1191.45,1446.36,1187.24Z"/><path d="M1487,1187.46a14.44,14.44,0,0,1-4.16-10.75,14,14,0,0,1,6-11.7q6-4.48,17.23-4.82a55.69,55.69,0,0,0,6.65-.44,5,5,0,0,0,2.78-1,2.51,2.51,0,0,0,.44-2.17l-.33-2.77q-.78-6-3.44-9a9.43,9.43,0,0,0-7.43-3,11.44,11.44,0,0,0-8,2.72,9.41,9.41,0,0,0-2.88,7.59,4.65,4.65,0,0,1-1.55,3.22,5.26,5.26,0,0,1-3.44,1.1,3.85,3.85,0,0,1-2.72-1.1,4.12,4.12,0,0,1-1.16-3.11,12.05,12.05,0,0,1,2.88-7.76,19.48,19.48,0,0,1,7.87-5.6,29.05,29.05,0,0,1,11.09-2q8.64,0,13.13,4.49t5.49,13.25l2.66,21.39q.55,4.77,1.55,6.49a3,3,0,0,0,2.66,1.72,2.65,2.65,0,0,0,1.72-.5,7.33,7.33,0,0,0,1.33-1.55c.48-.71.91-1.06,1.28-1.06,1,0,1.55.71,1.55,2.11a7.06,7.06,0,0,1-1.11,3.55,9.27,9.27,0,0,1-3.16,3.16,8.62,8.62,0,0,1-4.6,1.27,7.82,7.82,0,0,1-6-2.22,14.26,14.26,0,0,1-3-6.65c-.29-.66-.55-1-.77-1s-1,1-2.39,2.83a18.71,18.71,0,0,1-6.32,5.16q-4.26,2.33-11.25,2.32Q1491.15,1191.56,1487,1187.46Zm26.66-5.87a14.92,14.92,0,0,0,4-12.09l-.22-2.21a3.35,3.35,0,0,0-.94-2.16,4.27,4.27,0,0,0-2.33-.78c-1.07-.11-3-.17-5.82-.17q-8,0-11.75,2.94a9.32,9.32,0,0,0-3.77,7.71c0,3.47.9,6.15,2.72,8s4.52,2.83,8.14,2.83A13.59,13.59,0,0,0,1513.64,1181.59Z"/><path d="M1544.68,1190.18a2,2,0,0,1-1.44-1.83,2.22,2.22,0,0,1,1.88-2.22,11.12,11.12,0,0,0,4.43-1.33,3.51,3.51,0,0,0,1.61-2.33,28.65,28.65,0,0,0,.28-4.87v-54a7.63,7.63,0,0,0-.5-3.21c-.33-.67-1.09-1-2.27-1a22.72,22.72,0,0,0-2.27.11c-.71.07-1.32.11-1.83.11a3.41,3.41,0,0,1-1.61-.28,1.21,1.21,0,0,1-.5-1.16,1.93,1.93,0,0,1,.83-1.61,9.94,9.94,0,0,1,2.38-1.16c2.22-.67,3.59-1.07,4.11-1.22q2.55-.78,4.87-1.44a14,14,0,0,1,3.55-.67,3.23,3.23,0,0,1,2.27.67,3.08,3.08,0,0,1,.72,2.33v62.52a23.75,23.75,0,0,0,.34,4.76,3.73,3.73,0,0,0,1.66,2.33,12.35,12.35,0,0,0,4.43,1.44c1.33.37,2,1.11,2,2.22a2,2,0,0,1-1.28,1.83,14.14,14.14,0,0,1-5.15.61l-6.54-.11-6.65.11A15.72,15.72,0,0,1,1544.68,1190.18Z"/></g></svg>